<svg width="74" height="43" viewBox="0 0 74 43" fill="none" xmlns="http://www.w3.org/2000/svg">
<mask id="mask0_2_513" style="mask-type:luminance" maskUnits="userSpaceOnUse" x="0" y="0" width="74" height="43">
<path d="M0.374268 0.962891H73.782V42.9649H0.374268V0.962891Z" fill="white"/>
</mask>
<g mask="url(#mask0_2_513)">
<path d="M69.146 0.955933C69.0756 0.955933 69.0094 0.962617 68.9433 0.979328L60.5789 2.87378C60.1734 2.96763 59.9318 3.3258 60.0411 3.67729L60.4929 5.10634L58.3572 5.59847C53.1341 5.58845 47.9074 5.57508 42.6808 5.57174C42.6691 5.57174 42.6574 5.57174 42.6457 5.57174C41.839 5.60181 41.0709 5.8898 40.4902 6.37163C40.4708 6.38499 40.4513 6.39836 40.4358 6.41507C39.9875 6.79664 39.5392 7.17514 39.0948 7.5567C38.6468 7.93826 38.1985 8.31983 37.7502 8.70139C37.3019 9.08295 36.8576 9.46452 36.4093 9.84608C35.9613 10.2276 35.513 10.6092 35.0647 10.9908C34.6203 11.3723 34.172 11.7506 33.7241 12.1321C33.6965 12.1555 33.6693 12.1792 33.642 12.2026C33.2252 11.9748 32.7691 11.7973 32.2819 11.6837H32.278C31.5842 11.5264 30.8825 11.503 30.2082 11.5932C28.1931 11.8745 26.4314 13.1966 25.8508 15.0443C24.8842 18.1171 26.2988 20.9621 27.8814 22.9905C29.4637 25.0223 31.2841 26.3176 31.2841 26.3176C31.4554 26.4416 31.6815 26.4917 31.9037 26.4583C31.9037 26.4583 32.0636 26.4346 32.3247 26.3845C32.5858 26.3344 32.956 26.2575 33.4042 26.1469C33.8564 26.0363 34.3826 25.8926 34.9596 25.7085C35.5325 25.5244 36.1559 25.3 36.7992 25.029C37.4385 24.7577 38.0931 24.4399 38.7363 24.0684C38.9002 23.9745 39.0597 23.8776 39.2158 23.7804C39.3757 23.6801 39.5314 23.5729 39.6874 23.4657C39.8431 23.3587 39.9952 23.2481 40.1474 23.1345C40.2992 23.0206 40.4474 22.9 40.5915 22.7763C40.6657 22.7159 40.7358 22.6524 40.8059 22.5889C40.8801 22.5251 40.9502 22.4616 41.0203 22.3981C41.0709 22.3477 41.1179 22.3009 41.1685 22.2508C41.2386 22.2341 41.3086 22.2107 41.379 22.1906L51.6845 19.8208C52.7874 19.6066 53.5123 19.0139 54.1517 18.7162C54.1634 18.7095 54.175 18.7028 54.1867 18.6961C56.5524 17.4475 58.9184 16.199 61.2844 14.9504L63.4512 14.4519L63.8956 15.8508C64.005 16.2023 64.4257 16.4098 64.835 16.3196L73.1955 14.4218C73.6049 14.3279 73.8465 13.9697 73.7333 13.6216L69.8788 1.44472C69.7889 1.16008 69.4889 0.959275 69.146 0.955933ZM37.1304 1.62214C33.0108 1.61879 28.8909 2.52229 25.3049 4.31648C25.301 4.31648 25.301 4.31648 25.301 4.31982C17.2915 8.17249 12.4777 16.2057 13.5339 24.0416C13.5654 24.4132 13.951 24.6875 14.3838 24.6441C14.8126 24.6039 15.1165 24.2625 15.0504 23.8943C14.072 16.6106 18.6088 9.03616 26.0571 5.45782L26.061 5.45448L26.0688 5.45114C31.9504 2.50892 39.4535 2.12736 45.713 4.42705C46.1029 4.58106 46.5629 4.42704 46.7342 4.08893C46.9019 3.75081 46.7147 3.35588 46.3135 3.22192C43.7953 2.29475 41.0985 1.77253 38.3776 1.64887C38.0931 1.63885 37.8125 1.62882 37.528 1.62548C37.3954 1.62214 37.263 1.62214 37.1304 1.62214ZM44.3023 12.2427C45.0857 12.2661 45.7873 12.7315 46.0053 13.4375C46.2784 14.3079 45.7052 15.1649 44.7114 15.3924L42.9263 15.804C42.8718 15.7038 42.8173 15.6032 42.7547 15.506C42.5951 15.2517 42.4041 15.0075 42.1897 14.7833C41.9752 14.5588 41.7336 14.3547 41.4647 14.1706C41.1997 13.9831 40.9113 13.8224 40.6035 13.6854C40.5097 13.6417 40.4124 13.6049 40.3109 13.5681C40.5486 13.364 40.7903 13.1565 41.0281 12.949L43.7525 12.2995C43.9397 12.2561 44.1229 12.2393 44.3023 12.2427ZM59.5185 17.3236C59.0352 17.337 58.6884 17.7252 58.7974 18.1305C60.575 25.1663 57.1295 32.9518 50.3513 37.1961L50.3474 37.1994L50.3396 37.2028C43.6124 41.6108 33.9382 42.2068 26.5365 38.6856C26.1664 38.5015 25.6948 38.6151 25.4881 38.9365C25.2815 39.2579 25.4181 39.6629 25.796 39.8336C33.7513 43.6158 44.0331 42.9833 51.2634 38.2469C58.548 33.6815 62.204 25.4205 60.2905 17.8525C60.2162 17.5378 59.8928 17.3169 59.5185 17.327V17.3236ZM43.7136 24.3628C43.277 24.3728 42.8368 24.46 42.4196 24.634C42.4041 24.6407 42.3924 24.6474 42.3807 24.6507C39.3403 26.1202 36.3236 27.6197 33.3069 29.1025C33.0653 27.7133 31.6581 26.6357 29.9743 26.6324L15.4205 26.5953C15.2764 26.5953 15.136 26.6053 14.9994 26.6187C14.9955 26.6187 14.9878 26.6187 14.9839 26.6187C14.9761 26.6187 14.9722 26.6223 14.9683 26.6223C14.9294 26.6257 14.8904 26.629 14.8554 26.6357C14.8321 26.639 14.8087 26.6424 14.7892 26.6457C14.7578 26.6491 14.7266 26.6558 14.6994 26.6624C14.6721 26.6658 14.6449 26.6725 14.6176 26.6758C14.5943 26.6825 14.5709 26.6858 14.5476 26.6925C14.5161 26.6992 14.4811 26.7059 14.4499 26.7159C14.4305 26.7193 14.411 26.7259 14.3877 26.7293C14.3526 26.7393 14.3176 26.7493 14.2822 26.7627C14.2706 26.766 14.2589 26.7694 14.2472 26.7727C14.2044 26.7861 14.1577 26.7995 14.1149 26.8165H14.111C14.111 26.8198 14.1071 26.8198 14.1071 26.8198C13.9744 26.8666 13.8459 26.9201 13.7172 26.9836L11.1176 28.2622L10.4549 28.587L10.2872 28.0581C10.1782 27.7099 9.75718 27.5024 9.34782 27.593L0.98733 29.4907C0.578291 29.5843 0.340523 29.9425 0.449514 30.2906L4.30441 42.4678C4.4134 42.8193 4.83444 43.0268 5.23991 42.9332L13.6043 41.0351C14.0133 40.9449 14.2511 40.5867 14.1421 40.2352L13.9004 39.4688L14.906 38.9733L17.5098 37.6913C17.6499 37.6211 17.7943 37.5743 17.9461 37.5373C18.0904 37.5072 18.2464 37.4871 18.406 37.4871L28.6648 37.5039C28.6648 37.5039 28.6648 37.5039 28.6687 37.5039C29.261 37.5339 29.8497 37.427 30.3759 37.1961C30.3875 37.1894 30.3992 37.1861 30.4109 37.1791C35.3453 34.7591 40.2758 32.3257 45.2103 29.899C46.6135 29.3367 47.4864 27.9845 47.1007 26.6357C46.789 25.3066 45.3857 24.3962 43.9007 24.3628C43.8385 24.3594 43.7759 24.3594 43.7136 24.3628Z" fill="#074B1A"/>
</g>
</svg>
