<svg width="14" height="14" viewBox="0 0 14 14" fill="none" xmlns="http://www.w3.org/2000/svg">
<g clip-path="url(#clip0_2_640)">
<path fill-rule="evenodd" clip-rule="evenodd" d="M13.6813 13.1839H10.6652V8.53654C10.6652 7.31704 10.1988 6.49305 9.14157 6.49305C8.33313 6.49305 7.89781 7.05336 7.71125 7.58072C7.64906 7.77847 7.64906 8.04215 7.64906 8.30583V13.1839H4.66406C4.66406 13.1839 4.69516 4.9769 4.66406 4.21883H7.64906V5.6361C7.83562 5.00987 8.76844 4.15292 10.3231 4.15292C12.2198 4.15292 13.7123 5.43834 13.7123 8.20695V13.1839H13.6813ZM1.61688 3.0982C0.621879 3.0982 0 2.40606 0 1.54911C0 0.659197 0.652973 0 1.61688 0C2.61188 0 3.20266 0.659197 3.23376 1.54911C3.23376 2.40606 2.61188 3.0982 1.61688 3.0982ZM0.342024 4.21883H3.0161V13.1839H0.342024V4.21883Z" fill="#311919"/>
</g>
<defs>
<clipPath id="clip0_2_640">
<rect width="14" height="14" fill="white"/>
</clipPath>
</defs>
</svg>
