<svg width="1440" height="130" viewBox="0 0 1440 130" fill="none" xmlns="http://www.w3.org/2000/svg">
<g clip-path="url(#clip0_292_505)">
<path fill-rule="evenodd" clip-rule="evenodd" d="M113 45.0023C107.564 47.419 100.865 49.614 93.0304 51.6375V54.0543C93.0304 54.7219 93.0203 55.3712 93 56L94.3134 55.6616C100.599 54.036 106.998 52.1222 112.977 49.646C112.987 48.2124 112.995 46.6622 113 45V45.0023Z" fill="#8BC34A" fill-opacity="0.97"/>
<path fill-rule="evenodd" clip-rule="evenodd" d="M111.838 60.8954C123.641 55.0735 129.013 48.0024 126.431 39C126.398 42.811 121.237 46.6219 111.423 50.4258C106.539 52.3196 100.504 54.211 93.3743 56.1C93.3766 56.1329 93.3766 56.1657 93.3789 56.1985C89.4274 57.3493 85.7594 58.3125 82.3961 59.1329C79.0094 59.9321 74.9641 60.8016 70.2368 61.7883C65.486 62.7516 62.5211 63.361 61.3469 63.6446C55.6305 64.8657 51.161 67.3078 47.8938 70.9243C44.6243 74.5664 43 78.9352 43 84.0797C43 87.8836 43.9891 91.4086 45.9649 94.6735C47.9407 97.9383 50.7625 100.498 54.4071 102.401C58.054 104.304 62.2868 105.267 67.1313 105.267C72.4 105.267 77.1743 104.374 81.4329 102.612C85.6657 100.852 90.0625 98.1961 94.6258 94.6735C96.7422 98.1258 98.718 100.732 100.623 102.541C102.506 104.351 104.411 105.267 106.338 105.267C108.62 105.267 110.69 104.468 112.499 102.893C114.311 101.32 115.204 99.5578 115.204 97.6313C115.204 96.5274 114.641 94.0618 113.465 90.2344C112.288 86.4047 111.7 82.7157 111.7 79.193C111.747 75.436 111.77 72.0047 111.796 68.9274C111.803 67.9149 111.81 66.8227 111.817 65.6555C106.291 68.1938 100.375 70.1555 94.5649 71.8219L93.3508 72.1688C93.1914 77.6649 92.3547 81.6774 90.8383 84.2203C89.3571 86.7797 87.0532 88.8938 83.9008 90.5157C80.7508 92.1352 77.3149 92.9578 73.6 92.9578C70.1196 92.9578 67.2954 91.9711 65.1321 89.9743C62.9688 87.9774 61.886 85.5586 61.886 82.6946C61.886 79.9453 62.8047 77.8078 64.6399 76.2821C66.4727 74.7305 68.4016 73.6969 70.4243 73.1813C72.4469 72.6399 76.0938 71.8172 81.3602 70.6899C86.6055 69.5625 90.6274 68.5055 93.3789 67.4953V67.6993C100.621 65.6227 106.813 63.3727 111.838 60.8954Z" fill="#64ABD3"/>
<mask id="mask0_292_505" style="mask-type:luminance" maskUnits="userSpaceOnUse" x="46" y="25" width="65" height="28">
<path d="M46 25H110.8V52.7734H46V25Z" fill="white"/>
</mask>
<g mask="url(#mask0_292_505)">
<path fill-rule="evenodd" clip-rule="evenodd" d="M92.9233 48.2173C98.6233 46.6962 104.387 44.9923 109.883 42.8619L110.673 42.5548C110.218 40.6376 109.632 38.9056 108.915 37.3634C106.962 33.1353 103.623 30.058 98.8952 28.108C94.1679 26.1603 87.678 25.1736 79.3976 25.1736C71.989 25.1736 65.8272 26.1837 60.8655 28.2041C55.9015 30.222 52.2569 32.7837 49.9038 35.908C47.553 39.0322 46.3999 42.2501 46.3999 45.5384C46.3999 47.6525 47.1522 49.3916 48.7062 50.7298C50.2343 52.0916 52.0694 52.7736 54.1858 52.7736C56.5132 52.7736 58.0437 52.3494 58.7726 51.5056C59.478 50.6595 60.6991 48.897 62.4171 46.2439C64.1327 43.565 66.2046 41.5916 68.6257 40.2533C71.0257 38.915 74.6233 38.2564 79.3976 38.2564C84.971 38.2564 88.6179 39.4072 90.4038 41.7322C91.5968 43.2861 92.4335 45.4517 92.9233 48.2197V48.2173Z" fill="#64ABD3"/>
</g>
<mask id="mask1_292_505" style="mask-type:luminance" maskUnits="userSpaceOnUse" x="120" y="33" width="105" height="39">
<path d="M120.8 33.2002H224.6V71.6002H120.8V33.2002Z" fill="white"/>
</mask>
<g mask="url(#mask1_292_505)">
<mask id="mask2_292_505" style="mask-type:luminance" maskUnits="userSpaceOnUse" x="120" y="1" width="106" height="105">
<path d="M158.853 1.229L225.167 39.3688L187.03 105.683L120.713 67.5454L158.853 1.229Z" fill="white"/>
</mask>
<g mask="url(#mask2_292_505)">
<mask id="mask3_292_505" style="mask-type:luminance" maskUnits="userSpaceOnUse" x="120" y="1" width="106" height="105">
<path d="M158.853 1.229L225.167 39.3688L187.03 105.683L120.713 67.5454L158.853 1.229Z" fill="white"/>
</mask>
<g mask="url(#mask3_292_505)">
<path d="M175.32 62.3798C174.842 62.4782 174.235 62.49 174.156 62.3985C174.102 62.3353 174.273 62.3095 174.793 62.3071C175.184 62.3025 175.517 62.3071 175.534 62.3142C175.55 62.3212 175.454 62.3517 175.32 62.3798ZM167.202 67.0415C167.007 67.2571 166.728 67.5056 166.583 67.5946C166.224 67.8173 165.495 68.0001 164.537 68.1103C162.599 68.3329 161.703 68.4478 161.227 68.5368C160.799 68.6165 160.752 68.6142 160.93 68.5251C161.249 68.3657 161.987 68.1103 162.737 67.8993C163.105 67.7962 163.803 67.5665 164.291 67.3907C164.776 67.2126 165.559 66.9735 166.03 66.8564C166.93 66.6337 167.373 66.4298 167.717 66.0782L167.928 65.865L167.741 66.2587C167.619 66.5142 167.431 66.786 167.202 67.0415ZM162.941 65.6025C162.423 65.7103 161.675 65.8837 161.279 65.9868C160.62 66.1579 159.805 66.2728 159.05 66.3032L158.757 66.315L159.022 66.2212C159.167 66.1696 159.676 66.0665 160.152 65.9915C160.627 65.9165 161.422 65.7618 161.916 65.6517C162.413 65.5392 163.058 65.422 163.349 65.3939C163.897 65.3376 163.92 65.3376 163.897 65.3798C163.89 65.3939 163.459 65.4946 162.941 65.6025ZM174.852 59.9587C175.25 59.8087 175.981 59.1571 176.185 58.7728C176.3 58.5525 176.309 58.4728 176.239 58.3275L176.152 58.1493L176.71 57.6829C177.017 57.4275 177.533 57.0548 177.856 56.8532C178.806 56.2673 179.326 55.8126 180.066 54.915C180.845 53.9751 181.049 53.7782 181.466 53.5603C181.634 53.4735 181.965 53.2532 182.202 53.0728C183.252 52.2689 183.615 52.0345 184.817 51.3853C185.52 51.0056 186.378 50.4946 186.727 50.2485C187.431 49.747 187.841 49.4985 187.899 49.536C187.923 49.5501 188.063 49.6673 188.211 49.7985C188.518 50.0657 188.731 50.354 189.055 50.9306C189.179 51.1509 189.301 51.3548 189.327 51.3806C189.352 51.4087 189.2 51.5634 188.987 51.7275C188.776 51.8915 188.349 52.229 188.04 52.4821C187.529 52.8993 187.416 52.9603 186.756 53.1665C185.734 53.4876 184.398 54.0454 184.063 54.2915C183.908 54.4064 183.416 54.8142 182.97 55.2009C182.094 55.9603 181.691 56.2087 180.374 56.7923C179.502 57.1767 179.49 57.1884 178.838 58.0556C178.276 58.8056 177.774 59.2509 177.078 59.6282C176.389 60.0009 175.911 60.1251 175.238 60.1087C174.727 60.097 174.608 60.0501 174.852 59.9587ZM174.059 59.7243C174.036 59.6446 174.758 59.0118 175.081 58.829C175.344 58.6814 175.749 58.5454 175.82 58.5829C175.827 58.5876 175.731 58.7048 175.602 58.8431C175.262 59.211 174.718 59.5837 174.376 59.6821C174.209 59.729 174.066 59.7501 174.059 59.7243ZM188.928 49.1446C189.228 49.0603 189.502 49.1634 189.688 49.4306C189.749 49.5196 189.826 49.6907 189.859 49.815L189.92 50.04L189.777 49.904C189.697 49.829 189.411 49.6509 189.139 49.5056C188.87 49.3626 188.652 49.2407 188.654 49.2337C188.659 49.2243 188.781 49.1845 188.928 49.1446ZM189.992 50.9001L189.814 50.9821C189.652 51.0571 189.629 51.0501 189.549 50.9142C189.502 50.8321 189.327 50.5345 189.16 50.2509L188.856 49.7353L189.118 49.9228C189.261 50.0259 189.516 50.2884 189.685 50.5064L189.992 50.9001ZM172.857 59.9704C172.327 59.9095 172.079 59.8579 172.105 59.8087C172.126 59.7689 172.346 59.5087 172.59 59.2321C172.836 58.9556 173.075 58.6579 173.12 58.5735C173.218 58.3884 173.27 58.4071 173.384 58.665C173.441 58.7892 173.443 58.9907 173.394 59.2275C173.3 59.6704 173.314 59.7571 173.502 59.9282C173.635 60.0501 173.586 60.0548 172.857 59.9704ZM172.102 59.1337C171.514 59.7853 171.352 59.9189 171.071 59.9868L170.886 60.0314L171.027 59.8532C171.202 59.6306 172.665 58.3884 172.651 58.4728C172.646 58.5079 172.398 58.8056 172.102 59.1337ZM153.95 58.7142C153.884 58.3743 153.938 57.5306 154.056 57.0384C154.175 56.5462 154.405 55.8759 154.428 55.9509C154.435 55.9743 154.414 56.3821 154.381 56.8603C154.325 57.6595 154.238 58.1587 154.06 58.7001L153.99 58.9157L153.95 58.7142ZM191.795 54.9337C192.015 54.779 192.296 54.5306 192.423 54.3853C192.615 54.1603 192.695 54.1157 192.959 54.0853C193.592 54.015 193.843 54.0454 194.019 54.2212C194.15 54.3525 194.314 54.4134 194.945 54.5681C195.643 54.7392 196.041 54.8751 196.011 54.936C196.004 54.9478 195.791 54.9478 195.538 54.9337C194.633 54.8892 194.434 54.9923 194.563 55.4446C194.626 55.665 194.624 55.679 194.504 55.6579C194.436 55.6462 194.241 55.6204 194.073 55.6017C193.904 55.5829 193.559 55.529 193.306 55.4821C193.053 55.4353 192.603 55.3814 192.303 55.3603C191.809 55.3298 191.368 55.2665 191.387 55.2314C191.389 55.2243 191.574 55.0907 191.795 54.9337ZM197.72 52.5407C198.102 52.3884 198.683 52.1142 199.006 51.929C200.909 50.8579 201.451 50.64 200.579 51.3032C199.953 51.779 197.881 52.7071 197.27 52.7845C197.101 52.8079 197.244 52.7306 197.72 52.5407ZM181.857 59.6306C181.574 59.8814 181.156 60.1532 181.14 60.0993C181.116 60.015 181.611 59.4759 181.956 59.211L182.342 58.9134L182.237 59.1501C182.176 59.2884 182.016 59.49 181.857 59.6306ZM176.474 62.6025C177.074 62.3235 177.198 62.1267 176.999 61.761C176.813 61.4259 176.377 60.9689 176 60.7157L175.693 60.5095L175.902 60.4954C176.455 60.4603 177.65 59.8767 178.278 59.3353C178.499 59.1454 178.904 58.686 179.227 58.2618L179.792 57.5235L180.573 57.1767C182.094 56.504 182.284 56.3821 183.547 55.29C184.006 54.8892 184.461 54.5282 184.555 54.4837C184.81 54.3689 186.174 53.8017 186.416 53.7126L186.622 53.6353L186.502 53.7923C186.437 53.8767 186.207 54.2095 185.994 54.5282C185.403 55.4071 184.116 56.9142 183.449 57.5118C183.127 57.8025 182.52 58.2782 182.103 58.5712C181.304 59.1314 181.06 59.3704 180.814 59.8298C180.531 60.3571 180.774 60.7251 181.271 60.5259C181.611 60.3876 182.15 59.9939 182.417 59.6892C182.631 59.4407 182.638 59.4384 182.558 59.6329C182.427 59.961 182.258 60.1298 181.735 60.4603C181.222 60.786 181.081 60.9712 181.199 61.1751C181.295 61.3392 181.972 61.3321 182.52 61.1634C183.207 60.9501 184.358 60.3571 185.382 59.6845C186.824 58.7376 186.999 58.5665 188.012 57.1134C188.349 56.6282 188.703 56.1689 188.797 56.0915C188.963 55.9579 189.301 55.8525 190.276 55.6392C190.63 55.5595 190.871 55.5548 191.181 55.6181C191.413 55.6673 191.851 55.7282 192.156 55.754C193.02 55.829 194.22 56.0259 194.438 56.1314C194.616 56.2157 194.633 56.2485 194.586 56.415C194.441 56.9329 193.953 57.6665 193.222 58.4587C193.039 58.6579 192.784 58.9743 192.655 59.1618C192.526 59.3517 192.362 59.5368 192.287 59.579C192.118 59.6751 190.693 62.115 190.583 62.5017C190.452 62.9587 190.728 63.4181 191.448 63.9454C191.865 64.2501 192.5 64.161 193.187 63.704C193.344 63.5985 194.068 62.947 194.797 62.2556C196.114 61.004 196.299 60.7954 197.673 59.0189C198.657 57.7439 199.318 57.1696 200.935 56.19C201.385 55.9157 202.074 55.4235 202.466 55.0954C202.855 54.765 203.293 54.397 203.438 54.2751C203.9 53.8837 205.313 52.4235 205.869 51.7603C206.331 51.2095 206.443 51.036 206.645 50.579C207.179 49.3743 207.65 47.5532 207.73 46.386C207.781 45.615 207.791 45.5798 208.032 45.179C208.234 44.8485 208.353 44.7196 208.646 44.5228C209.216 44.1384 210.437 43.597 211.257 43.3626C212.417 43.0345 212.663 42.9923 217.131 42.39C220.562 41.9282 222.875 41.497 223.51 41.2064C224.206 40.8853 224.431 40.6392 224.159 40.4962C224.075 40.4517 223.932 40.4962 223.674 40.6439C223.475 40.7587 223.086 40.9134 222.809 40.9884C221.86 41.2415 219.247 41.6845 217.189 41.9423C215.042 42.2118 212.581 42.5868 211.801 42.7673C210.247 43.1282 208.578 43.8923 207.966 44.5251C207.535 44.9704 207.334 45.4884 207.296 46.2525C207.249 47.1993 207.003 48.3126 206.546 49.665C206.159 50.8064 205.81 51.2915 204.184 52.9462C202.958 54.1954 201.636 55.2689 200.45 55.9814C199.06 56.8181 198.28 57.5095 197.366 58.7118C196.475 59.8837 195.718 60.7907 195.369 61.1048C195.163 61.2923 194.769 61.665 194.497 61.9368C193.184 63.24 192.669 63.6267 192.17 63.6876C192.017 63.704 191.818 63.6782 191.729 63.6314C191.415 63.4626 191.031 63.0571 190.981 62.8415C190.932 62.6329 190.939 62.6142 191.635 61.3696C192.024 60.6782 192.399 60.0595 192.472 59.9985C192.643 59.8509 192.906 59.8392 193.864 59.9446C194.549 60.0196 194.656 60.0126 194.738 59.8978C194.874 59.7032 194.774 59.5345 194.403 59.3376C194.159 59.2087 193.979 59.1665 193.644 59.1571C193.402 59.1501 193.22 59.1173 193.238 59.0845C193.257 59.0517 193.377 58.9181 193.506 58.7892C194.605 57.6853 195.284 56.3071 195.071 55.6181L194.996 55.372L195.418 55.3814C195.652 55.386 196.121 55.4306 196.461 55.4798C196.801 55.529 197.22 55.5571 197.394 55.5454C198.277 55.4775 198.84 55.1634 198.589 54.8751C198.505 54.779 198.32 54.779 197.809 54.8751C197.152 54.997 196.909 54.9548 196.281 54.6056C195.838 54.3618 195.61 54.2751 195.095 54.1579C194.745 54.0782 194.455 53.9985 194.448 53.9798C194.434 53.9306 196.004 53.4829 196.627 53.361C197.544 53.1806 198.374 52.911 199.285 52.4985C200.902 51.7696 201.873 50.9493 201.636 50.5181C201.451 50.1853 200.987 50.3376 199.208 51.3173C198.624 51.6407 197.799 52.0462 197.377 52.2173C196.215 52.6931 194.715 53.1196 193.897 53.2087C193.499 53.2532 193.063 53.3282 192.929 53.3751C192.683 53.4642 192.381 53.722 192.106 54.0806C192.024 54.1884 191.724 54.4392 191.438 54.6384C190.909 55.0087 190.534 55.1446 189.322 55.4118C188.638 55.5618 188.492 55.686 187.688 56.8321C186.657 58.2993 186.58 58.3767 184.909 59.4712C184.184 59.947 182.745 60.6689 182.253 60.8001C181.932 60.8868 181.944 60.854 182.335 60.5775C182.525 60.4439 182.715 60.24 182.851 60.0314C183.043 59.729 183.064 59.6446 183.085 59.1642C183.097 58.8735 183.078 58.5993 183.043 58.5595C182.989 58.4962 183.024 58.447 183.259 58.2618C183.739 57.8798 184.435 57.1837 184.958 56.5603C185.736 55.6321 185.841 55.4962 186.205 54.9571C186.39 54.6806 186.643 54.3314 186.767 54.179C186.997 53.8907 188.689 52.4821 189.463 51.9337C190.381 51.2798 191.755 50.1548 192.05 49.8126C192.552 49.2267 192.702 48.8423 192.477 48.7228C192.343 48.6525 192.083 48.8634 191.368 49.6228C190.974 50.04 190.585 50.4337 190.501 50.497L190.349 50.6142L190.341 50.197C190.327 49.4892 189.957 48.9032 189.395 48.7064C189.174 48.6267 189.045 48.6454 188.492 48.8282C187.681 49.0978 187.398 49.2454 186.57 49.836C186.205 50.0962 185.492 50.5275 184.988 50.7923C183.634 51.5095 183.045 51.8728 182.319 52.44C181.958 52.7189 181.477 53.054 181.248 53.1806C180.73 53.4712 180.528 53.661 179.783 54.5751C179.145 55.3579 178.588 55.8782 177.988 56.2485C177.516 56.5392 176.579 57.2212 176.124 57.6032C175.934 57.7626 175.484 58.0556 175.121 58.2571C174.76 58.4564 174.355 58.7259 174.224 58.8525C173.907 59.1595 173.851 59.1712 173.872 58.9251C173.884 58.8126 173.809 58.536 173.708 58.3134C173.607 58.0907 173.504 57.861 173.481 57.8025C173.443 57.7157 173.516 57.6243 173.928 57.2493C174.2 57.0032 174.816 56.3962 175.299 55.9017C176.769 54.3923 177.149 54.0946 178.728 53.204C181.25 51.7814 182.471 51.1321 183.749 50.5321C188.335 48.3712 190.876 46.965 193.67 45.0407C194.825 44.2462 195.46 43.74 196.761 42.5845C198.409 41.1243 199.649 40.2454 201.472 39.254C202.944 38.4525 204.331 37.8384 209.115 35.879C210.299 35.3939 211.946 34.6884 212.778 34.3087C213.61 33.929 214.323 33.6173 214.36 33.615C214.398 33.6126 214.463 33.5493 214.503 33.4743C214.597 33.2939 214.386 33.1743 214.128 33.2611C214.025 33.2962 213.692 33.4415 213.388 33.5821C212.312 34.0814 211.138 34.5853 209.588 35.2134C207.214 36.1767 203.757 37.6368 202.74 38.1056C201.795 38.5415 199.878 39.6431 198.978 40.2689C198.001 40.9462 197.234 41.5603 196.29 42.4204C195.357 43.2712 194.38 44.0329 193.145 44.8743C190.482 46.6837 187.874 48.1134 183.359 50.2345C181.646 51.0384 177.927 53.0962 177.034 53.7314C176.384 54.1931 175.958 54.5821 175.06 55.522C174.207 56.415 172.791 57.7368 171.809 58.5571C170.916 59.3025 170.64 59.5814 170.462 59.9189C170.326 60.1743 170.307 60.186 169.773 60.3056C169.47 60.3712 168.915 60.4579 168.54 60.4978C168.165 60.5376 167.368 60.7087 166.77 60.8821C165.821 61.154 165.324 61.2384 164.293 61.297C164.124 61.3064 164.042 61.3556 163.951 61.4985L163.829 61.686L163.395 61.4564C163.041 61.2665 162.889 61.2196 162.559 61.2032C161.97 61.1751 161.077 61.2946 160.257 61.5103C158.94 61.8595 157.923 61.9368 157.102 61.7493C156.749 61.6696 155.722 61.0626 155.45 60.772C155.162 60.465 154.977 60.0525 154.899 59.5415C154.834 59.1126 154.829 57.1087 154.892 56.3212C154.906 56.1384 154.899 55.9321 154.878 55.8618C154.829 55.6978 154.658 55.672 154.522 55.8079C154.356 55.972 154.513 55.3368 154.763 54.8329C154.998 54.3618 155.225 54.1485 155.865 53.8017C156.216 53.6118 156.568 53.3071 157.065 52.7634C157.217 52.5946 157.724 52.1376 158.19 51.7439C159.495 50.647 159.91 50.1079 160.595 48.6126C161.073 47.5673 161.335 46.815 161.352 46.4306C161.377 45.8142 161.021 45.24 160.47 45.0126C160.206 44.9025 160.121 44.9001 159.875 44.9962C159.495 45.1439 159.315 45.3501 158.68 46.3814C157.881 47.6751 157.85 47.7079 156.781 48.4017C156.261 48.7368 155.349 49.3603 154.756 49.7868C154.163 50.211 153.467 50.6587 153.212 50.7782C152.956 50.9001 152.216 51.1579 151.571 51.3548C150.266 51.7485 150.352 51.69 149.401 52.7845C148.709 53.5767 146.673 55.0017 145.297 55.6556C144.549 56.0095 143.722 56.1735 141.364 56.4337C139.006 56.6915 137.708 56.8485 136.065 57.0642C134.391 57.2868 131.734 57.5821 129.13 57.84C127.182 58.0321 126.172 58.2548 126.027 58.5267C125.947 58.6814 126.01 58.815 126.158 58.8056C126.205 58.8032 126.348 58.7493 126.477 58.6884C126.819 58.5243 127.677 58.379 128.778 58.2993C129.315 58.2595 130.046 58.1915 130.405 58.1517C130.763 58.1095 131.727 58.0064 132.545 57.922C133.36 57.8376 134.919 57.6525 136.004 57.5118C137.912 57.261 139.447 57.0782 141.77 56.8275C143.15 56.6775 144.338 56.4735 144.866 56.3001C145.761 56.0025 146.98 55.29 148.36 54.2564C149.19 53.6353 149.452 53.4009 149.865 52.9134C150.139 52.59 150.441 52.2689 150.538 52.2009C150.634 52.1329 151.264 51.9009 151.939 51.6853C152.616 51.472 153.338 51.2118 153.545 51.1087C153.751 51.0079 154.456 50.5415 155.113 50.0728C155.769 49.604 156.641 49.0064 157.053 48.7439C158.131 48.0618 158.155 48.0384 158.804 46.9673C159.702 45.4884 159.969 45.2306 160.384 45.4532C160.677 45.6103 160.904 45.9993 160.911 46.3532C160.918 46.74 160.613 47.6071 160.072 48.7345C159.521 49.8829 159.123 50.3798 157.944 51.3806C157.487 51.772 156.882 52.3251 156.606 52.611C156.059 53.1759 155.945 53.2673 155.474 53.5181C154.721 53.9189 154.381 54.4251 153.971 55.7704C153.484 57.3595 153.378 58.2759 153.587 59.1032C153.737 59.6962 154.023 59.804 154.266 59.354L154.391 59.1267L154.409 59.3165C154.445 59.6962 154.794 60.6806 154.972 60.9056C155.094 61.0603 155.41 61.3017 155.909 61.6228L156.662 62.1056L157.316 62.2157C158.141 62.3564 158.963 62.286 160.199 61.9743C161.225 61.7118 162.153 61.5923 162.662 61.6556C162.941 61.6884 163.081 61.747 163.44 61.972C163.829 62.2157 163.895 62.2415 164.035 62.19C164.152 62.1478 164.209 62.0775 164.26 61.9157C164.324 61.7095 164.34 61.7001 164.633 61.7071C165.174 61.7165 165.842 61.5946 166.988 61.2782C167.605 61.1095 168.395 60.9407 168.744 60.9079C169.091 60.8728 169.707 60.7696 170.113 60.6782C172.011 60.2517 171.948 60.254 173.837 60.554C175.473 60.8142 175.897 61.0064 176.464 61.747C176.663 62.0071 176.663 62.0259 176.474 62.115C176.363 62.1642 176.331 62.1548 176.267 62.047C176.174 61.8876 175.78 61.8384 174.819 61.8642C174.467 61.8735 174.158 61.8712 174.132 61.8571C174.036 61.8079 173.717 61.9368 173.656 62.0517C173.621 62.1173 173.609 62.2392 173.631 62.3235C173.654 62.4079 173.656 62.4782 173.638 62.4829C173.619 62.4853 173.377 62.49 173.099 62.4923C172.285 62.4993 171.664 62.5696 170.837 62.7525C170.005 62.9329 168.158 63.6079 167.443 63.9923C166.491 64.5009 165.606 64.7376 164.087 64.8876C163.356 64.9579 162.334 65.1126 161.816 65.2275C161.298 65.3423 160.454 65.504 159.941 65.586C158.734 65.7782 157.784 66.179 157.808 66.4884C157.824 66.7157 157.965 66.7532 158.764 66.7415C159.77 66.7251 160.409 66.6454 161.312 66.4181C161.713 66.3196 162.381 66.1673 162.795 66.0829C163.213 66.0009 163.829 65.8485 164.164 65.7478C165.212 65.4314 166.937 64.761 167.518 64.447C168.052 64.1564 169.841 63.4439 170.403 63.2962L170.675 63.2235L170.474 63.3689C170.361 63.4485 169.956 63.711 169.571 63.9548C168.76 64.4657 168.434 64.7282 167.834 65.3517C167.598 65.6001 167.298 65.8767 167.171 65.9681C167.042 66.0618 166.341 66.315 165.556 66.5493C162.615 67.4329 161.11 67.9439 160.283 68.3423C159.465 68.7337 157.827 69.5962 157.559 69.7743C157.487 69.8212 157.161 70.0415 156.833 70.2618C156.186 70.6978 155.827 70.8384 155.389 70.8314C154.956 70.8243 154.649 70.7071 152.778 69.8376C150.875 68.954 150.795 68.9189 149.495 68.4337C148.215 67.9532 147.284 67.6837 144.845 67.086C143.668 66.7978 142.337 66.4298 141.887 66.2704C141.434 66.1087 140.706 65.865 140.263 65.729C139.822 65.5907 139.079 65.3446 138.617 65.1829C136.749 64.529 135.577 64.4587 133.859 64.8946C133.447 65.0001 132.641 65.1782 132.069 65.2931C131.495 65.4056 130.63 65.5978 130.142 65.7196C129.657 65.8392 128.87 66.0056 128.394 66.09C127.918 66.1743 126.859 66.3735 126.041 66.5329C124.344 66.8634 123.242 67.0345 121.895 67.1751C121.377 67.2267 120.92 67.3017 120.877 67.3392C120.809 67.4001 120.868 67.6368 120.964 67.6884C121.119 67.7704 124.283 67.3251 126.102 66.9642C126.786 66.8282 127.831 66.629 128.424 66.5212C129.015 66.4157 129.816 66.247 130.206 66.1509C130.595 66.0525 131.401 65.8743 132.001 65.7548C132.599 65.6353 133.407 65.4571 133.794 65.3587C134.633 65.1501 135.216 65.0564 135.76 65.0446C136.339 65.0353 137.45 65.2392 138.191 65.4946C138.542 65.6142 139.356 65.8814 140 66.0876C140.645 66.2939 141.477 66.5751 141.849 66.711C142.224 66.847 143.497 67.1985 144.678 67.4892C145.859 67.7798 147.158 68.1126 147.563 68.2298C148.777 68.579 150.484 69.247 152.279 70.079C153.209 70.5103 154.199 70.9532 154.477 71.061C155.452 71.4384 156.059 71.3189 157.295 70.5009C157.773 70.1845 158.204 69.9595 158.588 69.8235C158.907 69.7134 159.542 69.4884 160.002 69.3243C160.904 69.0056 161.375 68.9212 163.913 68.6189C166.869 68.2673 167.176 68.0892 168.378 66.0337C168.988 64.9931 169.32 64.5501 169.574 64.4446C169.618 64.4259 169.993 64.1845 170.406 63.9079C171.591 63.1157 171.915 62.9751 172.651 62.9423C173.544 62.9025 174.104 62.9212 174.247 62.9962C174.601 63.1837 175.602 63.0056 176.474 62.6025Z" fill="#669BB5"/>
</g>
</g>
</g>
<path d="M137.582 91.5387C137.582 92.5137 137.774 93.0012 138.163 93.0012C138.531 93.0012 138.801 92.877 138.969 92.6262C139.143 92.3778 139.232 91.9231 139.232 91.2668H140.526C140.53 91.3747 140.535 91.5434 140.535 91.7731C140.535 92.5114 140.35 93.1512 139.982 93.695C139.532 94.384 138.812 94.7262 137.826 94.7262C137.188 94.7262 136.64 94.5481 136.185 94.1918C135.735 93.8309 135.426 93.3528 135.257 92.7575C134.062 94.07 132.557 94.7262 130.738 94.7262C129.737 94.7262 128.865 94.4356 128.122 93.8543C127.377 93.2684 127.007 92.4458 127.007 91.3887C127.007 89.57 128.352 88.227 131.047 87.3575C132.754 86.8137 133.771 86.4387 134.104 86.2325C134.441 86.0215 134.659 85.8083 134.76 85.595C134.865 85.377 134.919 85.1309 134.919 84.8543C134.919 84.3739 134.68 83.9708 134.207 83.645C133.731 83.3215 133.112 83.1575 132.351 83.1575C131.587 83.1575 130.916 83.3637 130.335 83.7762C130.74 84.0762 130.944 84.4676 130.944 84.9481C130.944 85.4239 130.785 85.8059 130.466 86.0918C130.152 86.3731 129.772 86.5137 129.322 86.5137C128.877 86.5137 128.509 86.3801 128.216 86.1106C127.928 85.8434 127.785 85.4637 127.785 84.9762C127.785 84.02 128.268 83.2465 129.238 82.6512C130.206 82.0512 131.385 81.7512 132.772 81.7512C135.247 81.7512 136.759 82.5575 137.31 84.17C137.49 84.702 137.582 85.3184 137.582 86.0168V91.5387ZM132.154 88.4731C131.427 88.7872 130.883 89.1856 130.522 89.6731C130.166 90.1606 129.988 90.6926 129.988 91.2668C129.988 91.8434 130.143 92.2793 130.457 92.5793C130.769 92.8747 131.155 93.02 131.619 93.02C132.576 93.02 133.363 92.6872 133.982 92.0168C134.605 91.3489 134.919 90.4137 134.919 89.2137V87.32C134.394 87.5895 133.837 87.8356 133.251 88.0606C132.669 88.2809 132.304 88.4168 132.154 88.4731Z" fill="#8BC34A" fill-opacity="0.97"/>
<path d="M159.457 83.6356C159.037 83.2185 158.35 83.0075 157.394 83.0075C156.443 83.0075 155.8 83.3544 155.463 84.0481C155.374 84.2427 155.332 84.4653 155.332 84.7138C155.332 84.9646 155.428 85.2083 155.622 85.445C155.821 85.6771 156.077 85.8997 156.391 86.1106C156.703 86.3169 157.052 86.5208 157.441 86.72C157.828 86.9146 158.231 87.1278 158.65 87.3575C159.068 87.5896 159.513 87.831 159.982 88.0794C161.7 89.0169 162.56 90.0552 162.56 91.1919C162.56 92.331 162.114 93.2052 161.229 93.8169C160.34 94.4239 159.161 94.7263 157.694 94.7263C156.232 94.7263 155.025 94.4638 154.075 93.9388C153.124 93.4138 152.65 92.7388 152.65 91.9138C152.65 91.4591 152.796 91.0771 153.091 90.77C153.391 90.4583 153.771 90.3013 154.235 90.3013C154.704 90.3013 155.088 90.4489 155.388 90.7419C155.693 91.0302 155.847 91.3747 155.847 91.7731C155.847 92.1739 155.707 92.5138 155.425 92.795C156.082 93.1771 156.897 93.3669 157.872 93.3669C158.847 93.3669 159.532 93.1396 159.925 92.6825C160.087 92.5021 160.169 92.2677 160.169 91.9794C160.169 91.2997 159.412 90.5896 157.9 89.8513C156.85 89.3403 156.063 88.9325 155.538 88.6325C153.855 87.6833 153.016 86.5372 153.016 85.1919C153.016 84.156 153.443 83.3263 154.3 82.7075C155.156 82.0841 156.25 81.77 157.582 81.77C158.913 81.77 160.031 82.0208 160.938 82.52C161.843 83.0146 162.297 83.6544 162.297 84.4419C162.297 84.8989 162.187 85.2388 161.969 85.4638C161.58 85.8458 161.21 86.0356 160.854 86.0356C160.277 86.0356 159.843 85.8927 159.55 85.6044C159.262 85.3114 159.119 84.9763 159.119 84.6013C159.119 84.2216 159.232 83.8981 159.457 83.6356Z" fill="#8BC34A" fill-opacity="0.97"/>
<path d="M183.581 83.5982C182.231 83.5982 181.137 84.0177 180.3 84.8544V91.8388C180.3 92.3451 180.385 92.6638 180.553 92.7951C180.839 93.0201 181.381 93.1326 182.175 93.1326V94.4826H175.922V93.1326C176.628 93.1326 177.07 93.0623 177.253 92.9169C177.434 92.774 177.544 92.6216 177.581 92.4576C177.624 92.2888 177.647 92.0826 177.647 91.8388V78.4794C177.647 77.8935 177.593 77.5091 177.488 77.3263C177.387 77.1458 177.108 77.0544 176.653 77.0544H175.894V75.6951C176.667 75.6951 177.274 75.6365 177.713 75.5169C178.149 75.3998 178.458 75.3154 178.641 75.2638C178.828 75.2076 179.03 75.1794 179.25 75.1794C179.681 75.1794 179.963 75.306 180.094 75.5544C180.23 75.8052 180.3 76.206 180.3 76.7544V83.4013C181.149 82.6654 182.168 82.1615 183.356 81.8919C183.743 81.7982 184.12 81.7513 184.491 81.7513C187.146 81.7513 188.475 83.5185 188.475 87.0482V91.8107C188.475 92.3544 188.553 92.7107 188.71 92.8794C188.864 93.0482 189.293 93.1326 189.994 93.1326V94.4826H184.172V93.1326C184.915 93.1326 185.363 93.0576 185.513 92.9076C185.667 92.7529 185.759 92.5935 185.785 92.4294C185.808 92.2607 185.822 92.0544 185.822 91.8107V87.2076C185.822 86.0708 185.714 85.2857 185.503 84.8544C185.084 84.0177 184.444 83.5982 183.581 83.5982Z" fill="#8BC34A" fill-opacity="0.97"/>
<path d="M213.81 91.5387C213.81 92.5137 214.003 93.0012 214.392 93.0012C214.76 93.0012 215.029 92.877 215.198 92.6262C215.371 92.3778 215.46 91.9231 215.46 91.2668H216.754C216.759 91.3747 216.764 91.5434 216.764 91.7731C216.764 92.5114 216.578 93.1512 216.21 93.695C215.76 94.384 215.041 94.7262 214.054 94.7262C213.417 94.7262 212.868 94.5481 212.414 94.1918C211.964 93.8309 211.654 93.3528 211.485 92.7575C210.29 94.07 208.785 94.7262 206.967 94.7262C205.966 94.7262 205.094 94.4356 204.351 93.8543C203.606 93.2684 203.235 92.4458 203.235 91.3887C203.235 89.57 204.581 88.227 207.276 87.3575C208.982 86.8137 210 86.4387 210.332 86.2325C210.67 86.0215 210.888 85.8083 210.989 85.595C211.094 85.377 211.148 85.1309 211.148 84.8543C211.148 84.3739 210.909 83.9708 210.435 83.645C209.96 83.3215 209.341 83.1575 208.579 83.1575C207.815 83.1575 207.145 83.3637 206.564 83.7762C206.969 84.0762 207.173 84.4676 207.173 84.9481C207.173 85.4239 207.014 85.8059 206.695 86.0918C206.381 86.3731 206.001 86.5137 205.551 86.5137C205.106 86.5137 204.738 86.3801 204.445 86.1106C204.157 85.8434 204.014 85.4637 204.014 84.9762C204.014 84.02 204.496 83.2465 205.467 82.6512C206.435 82.0512 207.614 81.7512 209.001 81.7512C211.476 81.7512 212.988 82.5575 213.539 84.17C213.719 84.702 213.81 85.3184 213.81 86.0168V91.5387ZM208.382 88.4731C207.656 88.7872 207.112 89.1856 206.751 89.6731C206.395 90.1606 206.217 90.6926 206.217 91.2668C206.217 91.8434 206.371 92.2793 206.685 92.5793C206.997 92.8747 207.384 93.02 207.848 93.02C208.804 93.02 209.592 92.6872 210.21 92.0168C210.834 91.3489 211.148 90.4137 211.148 89.2137V87.32C210.623 87.5895 210.065 87.8356 209.479 88.0606C208.898 88.2809 208.532 88.4168 208.382 88.4731Z" fill="#8BC34A" fill-opacity="0.97"/>
<path d="M1193 40H378V90H1193V40Z" fill="#ECEDF1"/>
<path d="M383.877 58.9849L379.876 70H378.241L382.848 57.9141H383.902L383.877 58.9849ZM387.23 70L383.221 58.9849L383.196 57.9141H384.25L388.874 70H387.23ZM387.023 65.5259V66.8374H380.233V65.5259H387.023ZM396.001 64.3472H392.938L392.921 63.0605H395.702C396.161 63.0605 396.562 62.9831 396.906 62.8281C397.249 62.6732 397.514 62.4518 397.702 62.1641C397.896 61.8708 397.993 61.5221 397.993 61.1182C397.993 60.6755 397.907 60.3158 397.736 60.0391C397.57 59.7568 397.312 59.5521 396.964 59.4248C396.621 59.292 396.183 59.2256 395.652 59.2256H393.295V70H391.693V57.9141H395.652C396.272 57.9141 396.825 57.9777 397.312 58.105C397.799 58.2267 398.212 58.4204 398.549 58.686C398.892 58.9461 399.152 59.2782 399.329 59.6821C399.506 60.0861 399.595 60.5703 399.595 61.1348C399.595 61.6328 399.468 62.0838 399.213 62.4878C398.959 62.8862 398.604 63.2127 398.151 63.4673C397.702 63.7218 397.177 63.8851 396.574 63.957L396.001 64.3472ZM395.926 70H392.307L393.212 68.6968H395.926C396.435 68.6968 396.867 68.6082 397.221 68.4312C397.581 68.2541 397.855 68.005 398.043 67.6841C398.231 67.3576 398.325 66.973 398.325 66.5303C398.325 66.082 398.245 65.6947 398.084 65.3682C397.924 65.0417 397.672 64.7899 397.329 64.6128C396.986 64.4357 396.543 64.3472 396.001 64.3472H393.718L393.735 63.0605H396.856L397.196 63.5254C397.777 63.5752 398.27 63.7412 398.674 64.0234C399.078 64.3001 399.385 64.6543 399.595 65.0859C399.811 65.5176 399.919 65.9935 399.919 66.5137C399.919 67.2663 399.753 67.9027 399.421 68.4229C399.094 68.9375 398.632 69.3304 398.034 69.6016C397.437 69.8672 396.734 70 395.926 70ZM412.79 63.5752V64.3389C412.79 65.2464 412.676 66.0599 412.449 66.7793C412.222 67.4987 411.896 68.1102 411.47 68.6138C411.044 69.1174 410.532 69.502 409.934 69.7676C409.342 70.0332 408.678 70.166 407.942 70.166C407.228 70.166 406.572 70.0332 405.975 69.7676C405.383 69.502 404.868 69.1174 404.431 68.6138C403.999 68.1102 403.664 67.4987 403.426 66.7793C403.188 66.0599 403.069 65.2464 403.069 64.3389V63.5752C403.069 62.6676 403.186 61.8569 403.418 61.1431C403.656 60.4237 403.991 59.8122 404.422 59.3086C404.854 58.7995 405.366 58.4121 405.958 58.1465C406.556 57.8809 407.212 57.748 407.925 57.748C408.661 57.748 409.325 57.8809 409.918 58.1465C410.515 58.4121 411.027 58.7995 411.453 59.3086C411.885 59.8122 412.214 60.4237 412.441 61.1431C412.673 61.8569 412.79 62.6676 412.79 63.5752ZM411.204 64.3389V63.5586C411.204 62.8392 411.129 62.2028 410.98 61.6494C410.836 61.096 410.623 60.6312 410.341 60.2549C410.059 59.8786 409.713 59.5936 409.303 59.3999C408.899 59.2062 408.44 59.1094 407.925 59.1094C407.427 59.1094 406.976 59.2062 406.572 59.3999C406.174 59.5936 405.831 59.8786 405.543 60.2549C405.261 60.6312 405.042 61.096 404.887 61.6494C404.732 62.2028 404.655 62.8392 404.655 63.5586V64.3389C404.655 65.0638 404.732 65.7057 404.887 66.2646C405.042 66.818 405.264 67.2856 405.551 67.6675C405.845 68.0438 406.191 68.3288 406.589 68.5225C406.993 68.7161 407.444 68.813 407.942 68.813C408.462 68.813 408.924 68.7161 409.328 68.5225C409.732 68.3288 410.073 68.0438 410.349 67.6675C410.631 67.2856 410.844 66.818 410.988 66.2646C411.132 65.7057 411.204 65.0638 411.204 64.3389ZM423.303 57.9141H424.897V66.0903C424.897 66.9979 424.695 67.7533 424.291 68.3564C423.887 68.9596 423.35 69.4134 422.681 69.7178C422.017 70.0166 421.294 70.166 420.514 70.166C419.695 70.166 418.954 70.0166 418.289 69.7178C417.631 69.4134 417.108 68.9596 416.721 68.3564C416.339 67.7533 416.148 66.9979 416.148 66.0903V57.9141H417.733V66.0903C417.733 66.7212 417.85 67.2414 418.082 67.6509C418.314 68.0604 418.638 68.3647 419.053 68.564C419.474 68.7632 419.961 68.8628 420.514 68.8628C421.073 68.8628 421.56 68.7632 421.975 68.564C422.396 68.3647 422.722 68.0604 422.954 67.6509C423.187 67.2414 423.303 66.7212 423.303 66.0903V57.9141ZM433.078 57.9141V70H431.501V57.9141H433.078ZM436.963 57.9141V59.2256H427.624V57.9141H436.963Z" fill="#424242"/>
<path d="M487.699 66.1567H489.293C489.21 66.9204 488.991 67.6038 488.637 68.207C488.283 68.8102 487.782 69.2889 487.135 69.6431C486.487 69.9917 485.679 70.166 484.711 70.166C484.003 70.166 483.358 70.0332 482.777 69.7676C482.201 69.502 481.706 69.1257 481.291 68.6387C480.876 68.1462 480.555 67.5568 480.328 66.8706C480.107 66.1789 479.996 65.4097 479.996 64.563V63.3594C479.996 62.5127 480.107 61.7463 480.328 61.0601C480.555 60.3683 480.879 59.7762 481.299 59.2837C481.725 58.7912 482.237 58.4121 482.835 58.1465C483.433 57.8809 484.105 57.748 484.852 57.748C485.765 57.748 486.537 57.9196 487.168 58.2627C487.799 58.6058 488.289 59.0817 488.637 59.6904C488.991 60.2936 489.21 60.9937 489.293 61.7905H487.699C487.622 61.2261 487.478 60.7419 487.268 60.3379C487.057 59.9284 486.758 59.613 486.371 59.3916C485.984 59.1702 485.477 59.0596 484.852 59.0596C484.315 59.0596 483.842 59.1619 483.433 59.3667C483.029 59.5715 482.688 59.862 482.412 60.2383C482.14 60.6146 481.936 61.0656 481.797 61.5913C481.659 62.117 481.59 62.7008 481.59 63.3428V64.563C481.59 65.1551 481.651 65.7113 481.772 66.2314C481.9 66.7516 482.091 67.2082 482.345 67.6011C482.6 67.994 482.924 68.3039 483.316 68.5308C483.709 68.7521 484.174 68.8628 484.711 68.8628C485.392 68.8628 485.934 68.7549 486.338 68.5391C486.742 68.3232 487.046 68.0133 487.251 67.6094C487.461 67.2054 487.611 66.7212 487.699 66.1567ZM501.981 63.5752V64.3389C501.981 65.2464 501.868 66.0599 501.641 66.7793C501.414 67.4987 501.088 68.1102 500.661 68.6138C500.235 69.1174 499.723 69.502 499.126 69.7676C498.534 70.0332 497.87 70.166 497.134 70.166C496.42 70.166 495.764 70.0332 495.166 69.7676C494.574 69.502 494.06 69.1174 493.622 68.6138C493.191 68.1102 492.856 67.4987 492.618 66.7793C492.38 66.0599 492.261 65.2464 492.261 64.3389V63.5752C492.261 62.6676 492.377 61.8569 492.61 61.1431C492.848 60.4237 493.182 59.8122 493.614 59.3086C494.046 58.7995 494.558 58.4121 495.15 58.1465C495.747 57.8809 496.403 57.748 497.117 57.748C497.853 57.748 498.517 57.8809 499.109 58.1465C499.707 58.4121 500.219 58.7995 500.645 59.3086C501.076 59.8122 501.406 60.4237 501.633 61.1431C501.865 61.8569 501.981 62.6676 501.981 63.5752ZM500.396 64.3389V63.5586C500.396 62.8392 500.321 62.2028 500.172 61.6494C500.028 61.096 499.815 60.6312 499.533 60.2549C499.25 59.8786 498.904 59.5936 498.495 59.3999C498.091 59.2062 497.632 59.1094 497.117 59.1094C496.619 59.1094 496.168 59.2062 495.764 59.3999C495.366 59.5936 495.022 59.8786 494.735 60.2549C494.452 60.6312 494.234 61.096 494.079 61.6494C493.924 62.2028 493.846 62.8392 493.846 63.5586V64.3389C493.846 65.0638 493.924 65.7057 494.079 66.2646C494.234 66.818 494.455 67.2856 494.743 67.6675C495.036 68.0438 495.382 68.3288 495.781 68.5225C496.185 68.7161 496.636 68.813 497.134 68.813C497.654 68.813 498.116 68.7161 498.52 68.5225C498.924 68.3288 499.264 68.0438 499.541 67.6675C499.823 67.2856 500.036 66.818 500.18 66.2646C500.324 65.7057 500.396 65.0638 500.396 64.3389ZM514.877 57.9141V70H513.267L507.182 60.6782V70H505.58V57.9141H507.182L513.292 67.2607V57.9141H514.877ZM523.133 57.9141V70H521.556V57.9141H523.133ZM527.017 57.9141V59.2256H517.679V57.9141H527.017ZM533.821 58.9849L529.82 70H528.184L532.791 57.9141H533.845L533.821 58.9849ZM537.174 70L533.165 58.9849L533.14 57.9141H534.194L538.818 70H537.174ZM536.967 65.5259V66.8374H530.176V65.5259H536.967ZM548.833 66.1567H550.427C550.344 66.9204 550.125 67.6038 549.771 68.207C549.417 68.8102 548.916 69.2889 548.269 69.6431C547.621 69.9917 546.813 70.166 545.845 70.166C545.136 70.166 544.492 70.0332 543.911 69.7676C543.335 69.502 542.84 69.1257 542.425 68.6387C542.01 68.1462 541.689 67.5568 541.462 66.8706C541.241 66.1789 541.13 65.4097 541.13 64.563V63.3594C541.13 62.5127 541.241 61.7463 541.462 61.0601C541.689 60.3683 542.013 59.7762 542.433 59.2837C542.859 58.7912 543.371 58.4121 543.969 58.1465C544.566 57.8809 545.239 57.748 545.986 57.748C546.899 57.748 547.671 57.9196 548.302 58.2627C548.933 58.6058 549.422 59.0817 549.771 59.6904C550.125 60.2936 550.344 60.9937 550.427 61.7905H548.833C548.756 61.2261 548.612 60.7419 548.401 60.3379C548.191 59.9284 547.892 59.613 547.505 59.3916C547.118 59.1702 546.611 59.0596 545.986 59.0596C545.449 59.0596 544.976 59.1619 544.566 59.3667C544.162 59.5715 543.822 59.862 543.545 60.2383C543.274 60.6146 543.069 61.0656 542.931 61.5913C542.793 62.117 542.724 62.7008 542.724 63.3428V64.563C542.724 65.1551 542.785 65.7113 542.906 66.2314C543.034 66.7516 543.224 67.2082 543.479 67.6011C543.734 67.994 544.057 68.3039 544.45 68.5308C544.843 68.7521 545.308 68.8628 545.845 68.8628C546.525 68.8628 547.068 68.7549 547.472 68.5391C547.876 68.3232 548.18 68.0133 548.385 67.6094C548.595 67.2054 548.744 66.7212 548.833 66.1567ZM558.027 57.9141V70H556.45V57.9141H558.027ZM561.911 57.9141V59.2256H552.573V57.9141H561.911Z" fill="#424242"/>
<path d="M623.844 66.9453C623.844 66.6631 623.8 66.4141 623.711 66.1982C623.628 65.9769 623.479 65.7777 623.263 65.6006C623.053 65.4235 622.76 65.2547 622.383 65.0942C622.013 64.9338 621.542 64.7705 620.972 64.6045C620.375 64.4274 619.835 64.231 619.354 64.0151C618.872 63.7938 618.46 63.542 618.117 63.2598C617.774 62.9775 617.511 62.6538 617.328 62.2886C617.146 61.9233 617.054 61.5055 617.054 61.0352C617.054 60.5648 617.151 60.1304 617.345 59.7319C617.538 59.3335 617.815 58.9876 618.175 58.6943C618.54 58.3955 618.974 58.1631 619.478 57.9971C619.982 57.8311 620.543 57.748 621.163 57.748C622.071 57.748 622.84 57.9224 623.471 58.271C624.107 58.6141 624.591 59.0651 624.923 59.624C625.255 60.1774 625.421 60.7695 625.421 61.4004H623.828C623.828 60.9466 623.731 60.5454 623.537 60.1968C623.343 59.8426 623.05 59.5659 622.657 59.3667C622.264 59.1619 621.766 59.0596 621.163 59.0596C620.593 59.0596 620.123 59.1453 619.752 59.3169C619.381 59.4884 619.104 59.7209 618.922 60.0142C618.745 60.3075 618.656 60.6423 618.656 61.0186C618.656 61.2731 618.709 61.5055 618.814 61.7158C618.925 61.9206 619.093 62.1115 619.32 62.2886C619.553 62.4657 619.846 62.6289 620.2 62.7783C620.56 62.9277 620.989 63.0716 621.487 63.21C622.173 63.4036 622.765 63.6195 623.263 63.8574C623.761 64.0954 624.171 64.3638 624.492 64.6626C624.818 64.9559 625.059 65.2907 625.214 65.667C625.374 66.0378 625.455 66.4583 625.455 66.9287C625.455 67.4212 625.355 67.8667 625.156 68.2651C624.957 68.6636 624.672 69.0039 624.301 69.2861C623.93 69.5684 623.485 69.7869 622.964 69.9419C622.45 70.0913 621.874 70.166 621.238 70.166C620.679 70.166 620.128 70.0885 619.586 69.9336C619.049 69.7786 618.559 69.5462 618.117 69.2363C617.68 68.9264 617.328 68.5446 617.062 68.0908C616.802 67.6315 616.672 67.1003 616.672 66.4971H618.266C618.266 66.9121 618.346 67.269 618.507 67.5679C618.667 67.8612 618.886 68.1047 619.163 68.2983C619.445 68.492 619.763 68.6359 620.117 68.73C620.477 68.8185 620.85 68.8628 621.238 68.8628C621.797 68.8628 622.27 68.7853 622.657 68.6304C623.045 68.4754 623.338 68.2541 623.537 67.9663C623.742 67.6785 623.844 67.3382 623.844 66.9453ZM633.162 57.9141V70H631.585V57.9141H633.162ZM637.047 57.9141V59.2256H627.709V57.9141H637.047ZM643.85 58.9849L639.849 70H638.214L642.821 57.9141H643.875L643.85 58.9849ZM647.204 70L643.194 58.9849L643.17 57.9141H644.224L648.847 70H647.204ZM646.996 65.5259V66.8374H640.206V65.5259H646.996ZM651.666 57.9141H655.667C656.574 57.9141 657.341 58.0524 657.966 58.3291C658.597 58.6058 659.076 59.0153 659.402 59.5576C659.734 60.0944 659.9 60.7557 659.9 61.5415C659.9 62.0949 659.787 62.6012 659.56 63.0605C659.339 63.5143 659.018 63.9017 658.597 64.2227C658.182 64.5381 657.684 64.7733 657.103 64.9282L656.655 65.1025H652.894L652.878 63.7993H655.717C656.292 63.7993 656.771 63.6997 657.153 63.5005C657.535 63.2957 657.822 63.0218 658.016 62.6787C658.21 62.3356 658.307 61.9565 658.307 61.5415C658.307 61.0767 658.215 60.6699 658.033 60.3213C657.85 59.9727 657.562 59.7043 657.169 59.5161C656.782 59.3224 656.281 59.2256 655.667 59.2256H653.268V70H651.666V57.9141ZM658.73 70L655.791 64.5215L657.46 64.5132L660.44 69.9004V70H658.73ZM667.143 57.9141V70H665.566V57.9141H667.143ZM671.028 57.9141V59.2256H661.69V57.9141H671.028ZM683.58 58.9849L679.579 70H677.944L682.551 57.9141H683.605L683.58 58.9849ZM686.933 70L682.924 58.9849L682.899 57.9141H683.953L688.577 70H686.933ZM686.726 65.5259V66.8374H679.936V65.5259H686.726ZM698.414 57.9141V70H696.812V57.9141H698.414ZM703.478 63.3511V64.6626H698.066V63.3511H703.478ZM704.3 57.9141V59.2256H698.066V57.9141H704.3ZM714.323 57.9141H715.917V66.0903C715.917 66.9979 715.715 67.7533 715.311 68.3564C714.907 68.9596 714.37 69.4134 713.701 69.7178C713.037 70.0166 712.315 70.166 711.534 70.166C710.715 70.166 709.974 70.0166 709.31 69.7178C708.651 69.4134 708.128 68.9596 707.741 68.3564C707.359 67.7533 707.168 66.9979 707.168 66.0903V57.9141H708.754V66.0903C708.754 66.7212 708.87 67.2414 709.102 67.6509C709.335 68.0604 709.658 68.3647 710.073 68.564C710.494 68.7632 710.981 68.8628 711.534 68.8628C712.093 68.8628 712.58 68.7632 712.995 68.564C713.416 68.3647 713.742 68.0604 713.975 67.6509C714.207 67.2414 714.323 66.7212 714.323 66.0903V57.9141ZM728.929 57.9141V70H727.319L721.234 60.6782V70H719.632V57.9141H721.234L727.344 67.2607V57.9141H728.929ZM736.239 70H733.715L733.732 68.6968H736.239C737.102 68.6968 737.821 68.5169 738.397 68.1572C738.972 67.792 739.404 67.2829 739.692 66.6299C739.985 65.9714 740.132 65.2021 740.132 64.3223V63.5835C740.132 62.8918 740.049 62.2775 739.883 61.7407C739.717 61.1984 739.473 60.7419 739.152 60.3711C738.831 59.9948 738.438 59.7098 737.973 59.5161C737.514 59.3224 736.986 59.2256 736.388 59.2256H733.665V57.9141H736.388C737.179 57.9141 737.902 58.0469 738.554 58.3125C739.207 58.5726 739.769 58.9517 740.24 59.4497C740.715 59.9422 741.081 60.5399 741.335 61.2427C741.59 61.9399 741.717 62.7257 741.717 63.6001V64.3223C741.717 65.1966 741.59 65.9852 741.335 66.688C741.081 67.3853 740.713 67.9801 740.231 68.4727C739.755 68.9652 739.18 69.3442 738.505 69.6099C737.835 69.87 737.08 70 736.239 70ZM734.57 57.9141V70H732.968V57.9141H734.57ZM745.324 57.9141H749.325C750.233 57.9141 750.999 58.0524 751.625 58.3291C752.255 58.6058 752.734 59.0153 753.061 59.5576C753.393 60.0944 753.559 60.7557 753.559 61.5415C753.559 62.0949 753.445 62.6012 753.218 63.0605C752.997 63.5143 752.676 63.9017 752.255 64.2227C751.84 64.5381 751.342 64.7733 750.761 64.9282L750.313 65.1025H746.553L746.536 63.7993H749.375C749.951 63.7993 750.429 63.6997 750.811 63.5005C751.193 63.2957 751.481 63.0218 751.674 62.6787C751.868 62.3356 751.965 61.9565 751.965 61.5415C751.965 61.0767 751.874 60.6699 751.691 60.3213C751.508 59.9727 751.221 59.7043 750.828 59.5161C750.44 59.3224 749.94 59.2256 749.325 59.2256H746.926V70H745.324V57.9141ZM752.388 70L749.45 64.5215L751.118 64.5132L754.098 69.9004V70H752.388ZM761.474 58.9849L757.473 70H755.838L760.445 57.9141H761.499L761.474 58.9849ZM764.828 70L760.818 58.9849L760.793 57.9141H761.848L766.471 70H764.828ZM764.62 65.5259V66.8374H757.83V65.5259H764.62ZM771.008 57.9141V70H769.406V57.9141H771.008ZM781.563 66.9453C781.563 66.6631 781.519 66.4141 781.43 66.1982C781.347 65.9769 781.198 65.7777 780.982 65.6006C780.772 65.4235 780.478 65.2547 780.102 65.0942C779.731 64.9338 779.261 64.7705 778.691 64.6045C778.093 64.4274 777.554 64.231 777.072 64.0151C776.591 63.7938 776.179 63.542 775.835 63.2598C775.492 62.9775 775.229 62.6538 775.047 62.2886C774.864 61.9233 774.773 61.5055 774.773 61.0352C774.773 60.5648 774.87 60.1304 775.063 59.7319C775.257 59.3335 775.534 58.9876 775.894 58.6943C776.259 58.3955 776.693 58.1631 777.197 57.9971C777.7 57.8311 778.262 57.748 778.882 57.748C779.789 57.748 780.559 57.9224 781.189 58.271C781.826 58.6141 782.31 59.0651 782.642 59.624C782.974 60.1774 783.14 60.7695 783.14 61.4004H781.546C781.546 60.9466 781.45 60.5454 781.256 60.1968C781.062 59.8426 780.769 59.5659 780.376 59.3667C779.983 59.1619 779.485 59.0596 778.882 59.0596C778.312 59.0596 777.841 59.1453 777.471 59.3169C777.1 59.4884 776.823 59.7209 776.641 60.0142C776.464 60.3075 776.375 60.6423 776.375 61.0186C776.375 61.2731 776.428 61.5055 776.533 61.7158C776.643 61.9206 776.812 62.1115 777.039 62.2886C777.271 62.4657 777.565 62.6289 777.919 62.7783C778.279 62.9277 778.708 63.0716 779.206 63.21C779.892 63.4036 780.484 63.6195 780.982 63.8574C781.48 64.0954 781.889 64.3638 782.21 64.6626C782.537 64.9559 782.778 65.2907 782.933 65.667C783.093 66.0378 783.173 66.4583 783.173 66.9287C783.173 67.4212 783.074 67.8667 782.875 68.2651C782.675 68.6636 782.39 69.0039 782.02 69.2861C781.649 69.5684 781.203 69.7869 780.683 69.9419C780.168 70.0913 779.593 70.166 778.957 70.166C778.398 70.166 777.847 70.0885 777.305 69.9336C776.768 69.7786 776.278 69.5462 775.835 69.2363C775.398 68.9264 775.047 68.5446 774.781 68.0908C774.521 67.6315 774.391 67.1003 774.391 66.4971H775.985C775.985 66.9121 776.065 67.269 776.226 67.5679C776.386 67.8612 776.605 68.1047 776.881 68.2983C777.164 68.492 777.482 68.6359 777.836 68.73C778.196 68.8185 778.569 68.8628 778.957 68.8628C779.515 68.8628 779.989 68.7853 780.376 68.6304C780.763 68.4754 781.057 68.2541 781.256 67.9663C781.461 67.6785 781.563 67.3382 781.563 66.9453ZM794.094 68.6968V70H787.694V68.6968H794.094ZM788.017 57.9141V70H786.415V57.9141H788.017ZM793.247 63.1104V64.4136H787.694V63.1104H793.247ZM794.011 57.9141V59.2256H787.694V57.9141H794.011ZM797.277 57.9141H801.278C802.186 57.9141 802.952 58.0524 803.578 58.3291C804.209 58.6058 804.687 59.0153 805.014 59.5576C805.346 60.0944 805.512 60.7557 805.512 61.5415C805.512 62.0949 805.398 62.6012 805.171 63.0605C804.95 63.5143 804.629 63.9017 804.209 64.2227C803.794 64.5381 803.296 64.7733 802.714 64.9282L802.266 65.1025H798.506L798.489 63.7993H801.328C801.904 63.7993 802.382 63.6997 802.764 63.5005C803.146 63.2957 803.434 63.0218 803.628 62.6787C803.821 62.3356 803.918 61.9565 803.918 61.5415C803.918 61.0767 803.827 60.6699 803.644 60.3213C803.462 59.9727 803.174 59.7043 802.781 59.5161C802.393 59.3224 801.893 59.2256 801.278 59.2256H798.88V70H797.277V57.9141ZM804.341 70L801.403 64.5215L803.071 64.5132L806.051 69.9004V70H804.341Z" fill="#424242"/>
<path d="M857.475 66.4722V57.9141H859.068V66.4722C859.068 67.269 858.905 67.9414 858.579 68.4893C858.252 69.0371 857.801 69.4549 857.226 69.7427C856.656 70.0249 856 70.166 855.258 70.166C854.517 70.166 853.858 70.0387 853.283 69.7842C852.707 69.5296 852.256 69.1423 851.93 68.6221C851.603 68.1019 851.44 67.4461 851.44 66.6548H853.042C853.042 67.1639 853.136 67.5817 853.324 67.9082C853.512 68.2347 853.772 68.4754 854.104 68.6304C854.442 68.7853 854.827 68.8628 855.258 68.8628C855.679 68.8628 856.055 68.7743 856.387 68.5972C856.725 68.4146 856.99 68.1462 857.184 67.792C857.378 67.4323 857.475 66.9924 857.475 66.4722ZM872.288 63.5752V64.3389C872.288 65.2464 872.174 66.0599 871.948 66.7793C871.721 67.4987 871.394 68.1102 870.968 68.6138C870.542 69.1174 870.03 69.502 869.432 69.7676C868.84 70.0332 868.176 70.166 867.44 70.166C866.726 70.166 866.071 70.0332 865.473 69.7676C864.881 69.502 864.366 69.1174 863.929 68.6138C863.497 68.1102 863.163 67.4987 862.925 66.7793C862.687 66.0599 862.568 65.2464 862.568 64.3389V63.5752C862.568 62.6676 862.684 61.8569 862.916 61.1431C863.154 60.4237 863.489 59.8122 863.921 59.3086C864.352 58.7995 864.864 58.4121 865.456 58.1465C866.054 57.8809 866.71 57.748 867.424 57.748C868.16 57.748 868.824 57.8809 869.416 58.1465C870.013 58.4121 870.525 58.7995 870.951 59.3086C871.383 59.8122 871.712 60.4237 871.939 61.1431C872.172 61.8569 872.288 62.6676 872.288 63.5752ZM870.702 64.3389V63.5586C870.702 62.8392 870.628 62.2028 870.478 61.6494C870.334 61.096 870.121 60.6312 869.839 60.2549C869.557 59.8786 869.211 59.5936 868.802 59.3999C868.398 59.2062 867.938 59.1094 867.424 59.1094C866.926 59.1094 866.475 59.2062 866.071 59.3999C865.672 59.5936 865.329 59.8786 865.041 60.2549C864.759 60.6312 864.54 61.096 864.386 61.6494C864.231 62.2028 864.153 62.8392 864.153 63.5586V64.3389C864.153 65.0638 864.231 65.7057 864.386 66.2646C864.54 66.818 864.762 67.2856 865.05 67.6675C865.343 68.0438 865.689 68.3288 866.087 68.5225C866.491 68.7161 866.942 68.813 867.44 68.813C867.96 68.813 868.422 68.7161 868.826 68.5225C869.23 68.3288 869.571 68.0438 869.847 67.6675C870.13 67.2856 870.343 66.818 870.487 66.2646C870.631 65.7057 870.702 65.0638 870.702 64.3389ZM877.605 57.9141V70H876.003V57.9141H877.605ZM891.016 57.9141V70H889.405L883.321 60.6782V70H881.719V57.9141H883.321L889.43 67.2607V57.9141H891.016ZM904.945 58.9849L900.944 70H899.309L903.916 57.9141H904.97L904.945 58.9849ZM908.299 70L904.29 58.9849L904.265 57.9141H905.319L909.942 70H908.299ZM908.091 65.5259V66.8374H901.301V65.5259H908.091ZM919.202 66.9453C919.202 66.6631 919.158 66.4141 919.07 66.1982C918.987 65.9769 918.837 65.7777 918.621 65.6006C918.411 65.4235 918.118 65.2547 917.742 65.0942C917.371 64.9338 916.9 64.7705 916.33 64.6045C915.733 64.4274 915.193 64.231 914.712 64.0151C914.23 63.7938 913.818 63.542 913.475 63.2598C913.132 62.9775 912.869 62.6538 912.686 62.2886C912.504 61.9233 912.412 61.5055 912.412 61.0352C912.412 60.5648 912.509 60.1304 912.703 59.7319C912.897 59.3335 913.173 58.9876 913.533 58.6943C913.898 58.3955 914.333 58.1631 914.836 57.9971C915.34 57.8311 915.901 57.748 916.521 57.748C917.429 57.748 918.198 57.9224 918.829 58.271C919.465 58.6141 919.95 59.0651 920.282 59.624C920.614 60.1774 920.78 60.7695 920.78 61.4004H919.186C919.186 60.9466 919.089 60.5454 918.895 60.1968C918.702 59.8426 918.408 59.5659 918.015 59.3667C917.623 59.1619 917.124 59.0596 916.521 59.0596C915.951 59.0596 915.481 59.1453 915.11 59.3169C914.739 59.4884 914.463 59.7209 914.28 60.0142C914.103 60.3075 914.014 60.6423 914.014 61.0186C914.014 61.2731 914.067 61.5055 914.172 61.7158C914.283 61.9206 914.452 62.1115 914.679 62.2886C914.911 62.4657 915.204 62.6289 915.558 62.7783C915.918 62.9277 916.347 63.0716 916.845 63.21C917.531 63.4036 918.123 63.6195 918.621 63.8574C919.119 64.0954 919.529 64.3638 919.85 64.6626C920.176 64.9559 920.417 65.2907 920.572 65.667C920.733 66.0378 920.813 66.4583 920.813 66.9287C920.813 67.4212 920.713 67.8667 920.514 68.2651C920.315 68.6636 920.03 69.0039 919.659 69.2861C919.288 69.5684 918.843 69.7869 918.323 69.9419C917.808 70.0913 917.232 70.166 916.596 70.166C916.037 70.166 915.486 70.0885 914.944 69.9336C914.407 69.7786 913.918 69.5462 913.475 69.2363C913.038 68.9264 912.686 68.5446 912.421 68.0908C912.161 67.6315 912.031 67.1003 912.031 66.4971H913.624C913.624 66.9121 913.705 67.269 913.865 67.5679C914.026 67.8612 914.244 68.1047 914.521 68.2983C914.803 68.492 915.121 68.6359 915.475 68.73C915.835 68.8185 916.209 68.8628 916.596 68.8628C917.155 68.8628 917.628 68.7853 918.015 68.6304C918.403 68.4754 918.696 68.2541 918.895 67.9663C919.1 67.6785 919.202 67.3382 919.202 66.9453ZM933.929 65.2603H930.7V63.957H933.929C934.554 63.957 935.061 63.8574 935.448 63.6582C935.836 63.459 936.118 63.1823 936.295 62.8281C936.477 62.474 936.569 62.07 936.569 61.6162C936.569 61.2012 936.477 60.811 936.295 60.4458C936.118 60.0806 935.836 59.7873 935.448 59.5659C935.061 59.339 934.554 59.2256 933.929 59.2256H931.074V70H929.472V57.9141H933.929C934.842 57.9141 935.614 58.0718 936.245 58.3872C936.876 58.7026 937.355 59.1398 937.681 59.6987C938.008 60.2521 938.171 60.8857 938.171 61.5996C938.171 62.3743 938.008 63.0356 937.681 63.5835C937.355 64.1313 936.876 64.5492 936.245 64.8369C935.614 65.1191 934.842 65.2603 933.929 65.2603ZM944.725 58.9849L940.724 70H939.089L943.696 57.9141H944.75L944.725 58.9849ZM948.078 70L944.069 58.9849L944.044 57.9141H945.098L949.722 70H948.078ZM947.871 65.5259V66.8374H941.081V65.5259H947.871ZM952.541 57.9141H956.542C957.449 57.9141 958.215 58.0524 958.841 58.3291C959.472 58.6058 959.95 59.0153 960.277 59.5576C960.609 60.0944 960.775 60.7557 960.775 61.5415C960.775 62.0949 960.661 62.6012 960.435 63.0605C960.213 63.5143 959.892 63.9017 959.472 64.2227C959.057 64.5381 958.559 64.7733 957.978 64.9282L957.529 65.1025H953.769L953.752 63.7993H956.591C957.167 63.7993 957.646 63.6997 958.027 63.5005C958.409 63.2957 958.697 63.0218 958.891 62.6787C959.084 62.3356 959.181 61.9565 959.181 61.5415C959.181 61.0767 959.09 60.6699 958.907 60.3213C958.725 59.9727 958.437 59.7043 958.044 59.5161C957.657 59.3224 957.156 59.2256 956.542 59.2256H954.143V70H952.541V57.9141ZM959.604 70L956.666 64.5215L958.334 64.5132L961.314 69.9004V70H959.604ZM968.018 57.9141V70H966.441V57.9141H968.018ZM971.903 57.9141V59.2256H962.564V57.9141H971.903ZM984.192 57.9141V70H982.582L976.498 60.6782V70H974.896V57.9141H976.498L982.607 67.2607V57.9141H984.192ZM995.91 68.6968V70H989.51V68.6968H995.91ZM989.833 57.9141V70H988.231V57.9141H989.833ZM995.063 63.1104V64.4136H989.51V63.1104H995.063ZM995.827 57.9141V59.2256H989.51V57.9141H995.827ZM999.093 57.9141H1003.09C1004 57.9141 1004.77 58.0524 1005.39 58.3291C1006.02 58.6058 1006.5 59.0153 1006.83 59.5576C1007.16 60.0944 1007.33 60.7557 1007.33 61.5415C1007.33 62.0949 1007.21 62.6012 1006.99 63.0605C1006.77 63.5143 1006.45 63.9017 1006.02 64.2227C1005.61 64.5381 1005.11 64.7733 1004.53 64.9282L1004.08 65.1025H1000.32L1000.31 63.7993H1003.14C1003.72 63.7993 1004.2 63.6997 1004.58 63.5005C1004.96 63.2957 1005.25 63.0218 1005.44 62.6787C1005.64 62.3356 1005.73 61.9565 1005.73 61.5415C1005.73 61.0767 1005.64 60.6699 1005.46 60.3213C1005.28 59.9727 1004.99 59.7043 1004.6 59.5161C1004.21 59.3224 1003.71 59.2256 1003.09 59.2256H1000.7V70H999.093V57.9141ZM1006.16 70L1003.22 64.5215L1004.89 64.5132L1007.87 69.9004V70H1006.16Z" fill="#424242"/>
<path d="M1057.67 70H1055.15L1055.17 68.6968H1057.67C1058.54 68.6968 1059.26 68.5169 1059.83 68.1572C1060.41 67.792 1060.84 67.2829 1061.13 66.6299C1061.42 65.9714 1061.57 65.2021 1061.57 64.3223V63.5835C1061.57 62.8918 1061.48 62.2775 1061.32 61.7407C1061.15 61.1984 1060.91 60.7419 1060.59 60.3711C1060.27 59.9948 1059.87 59.7098 1059.41 59.5161C1058.95 59.3224 1058.42 59.2256 1057.82 59.2256H1055.1V57.9141H1057.82C1058.61 57.9141 1059.34 58.0469 1059.99 58.3125C1060.64 58.5726 1061.2 58.9517 1061.67 59.4497C1062.15 59.9422 1062.52 60.5399 1062.77 61.2427C1063.02 61.9399 1063.15 62.7257 1063.15 63.6001V64.3223C1063.15 65.1966 1063.02 65.9852 1062.77 66.688C1062.52 67.3853 1062.15 67.9801 1061.67 68.4727C1061.19 68.9652 1060.61 69.3442 1059.94 69.6099C1059.27 69.87 1058.51 70 1057.67 70ZM1056 57.9141V70H1054.4V57.9141H1056ZM1076.06 63.5752V64.3389C1076.06 65.2464 1075.95 66.0599 1075.72 66.7793C1075.5 67.4987 1075.17 68.1102 1074.74 68.6138C1074.32 69.1174 1073.81 69.502 1073.21 69.7676C1072.62 70.0332 1071.95 70.166 1071.22 70.166C1070.5 70.166 1069.85 70.0332 1069.25 69.7676C1068.66 69.502 1068.14 69.1174 1067.71 68.6138C1067.27 68.1102 1066.94 67.4987 1066.7 66.7793C1066.46 66.0599 1066.34 65.2464 1066.34 64.3389V63.5752C1066.34 62.6676 1066.46 61.8569 1066.69 61.1431C1066.93 60.4237 1067.27 59.8122 1067.7 59.3086C1068.13 58.7995 1068.64 58.4121 1069.23 58.1465C1069.83 57.8809 1070.49 57.748 1071.2 57.748C1071.94 57.748 1072.6 57.8809 1073.19 58.1465C1073.79 58.4121 1074.3 58.7995 1074.73 59.3086C1075.16 59.8122 1075.49 60.4237 1075.72 61.1431C1075.95 61.8569 1076.06 62.6676 1076.06 63.5752ZM1074.48 64.3389V63.5586C1074.48 62.8392 1074.4 62.2028 1074.25 61.6494C1074.11 61.096 1073.9 60.6312 1073.62 60.2549C1073.33 59.8786 1072.99 59.5936 1072.58 59.3999C1072.17 59.2062 1071.71 59.1094 1071.2 59.1094C1070.7 59.1094 1070.25 59.2062 1069.85 59.3999C1069.45 59.5936 1069.11 59.8786 1068.82 60.2549C1068.54 60.6312 1068.32 61.096 1068.16 61.6494C1068.01 62.2028 1067.93 62.8392 1067.93 63.5586V64.3389C1067.93 65.0638 1068.01 65.7057 1068.16 66.2646C1068.32 66.818 1068.54 67.2856 1068.83 67.6675C1069.12 68.0438 1069.47 68.3288 1069.86 68.5225C1070.27 68.7161 1070.72 68.813 1071.22 68.813C1071.74 68.813 1072.2 68.7161 1072.6 68.5225C1073.01 68.3288 1073.35 68.0438 1073.62 67.6675C1073.91 67.2856 1074.12 66.818 1074.26 66.2646C1074.41 65.7057 1074.48 65.0638 1074.48 64.3389ZM1088.96 57.9141V70H1087.35L1081.27 60.6782V70H1079.66V57.9141H1081.27L1087.37 67.2607V57.9141H1088.96ZM1097.62 58.9849L1093.62 70H1091.99L1096.59 57.9141H1097.65L1097.62 58.9849ZM1100.98 70L1096.97 58.9849L1096.94 57.9141H1098L1102.62 70H1100.98ZM1100.77 65.5259V66.8374H1093.98V65.5259H1100.77ZM1108.82 57.9141V70H1107.25V57.9141H1108.82ZM1112.71 57.9141V59.2256H1103.37V57.9141H1112.71ZM1123.38 68.6968V70H1116.98V68.6968H1123.38ZM1117.3 57.9141V70H1115.7V57.9141H1117.3ZM1122.53 63.1104V64.4136H1116.98V63.1104H1122.53ZM1123.3 57.9141V59.2256H1116.98V57.9141H1123.3ZM1141.28 57.9141V70H1139.67L1133.58 60.6782V70H1131.98V57.9141H1133.58L1139.69 67.2607V57.9141H1141.28ZM1154.62 63.5752V64.3389C1154.62 65.2464 1154.51 66.0599 1154.28 66.7793C1154.06 67.4987 1153.73 68.1102 1153.3 68.6138C1152.88 69.1174 1152.36 69.502 1151.77 69.7676C1151.17 70.0332 1150.51 70.166 1149.77 70.166C1149.06 70.166 1148.41 70.0332 1147.81 69.7676C1147.22 69.502 1146.7 69.1174 1146.26 68.6138C1145.83 68.1102 1145.5 67.4987 1145.26 66.7793C1145.02 66.0599 1144.9 65.2464 1144.9 64.3389V63.5752C1144.9 62.6676 1145.02 61.8569 1145.25 61.1431C1145.49 60.4237 1145.82 59.8122 1146.26 59.3086C1146.69 58.7995 1147.2 58.4121 1147.79 58.1465C1148.39 57.8809 1149.04 57.748 1149.76 57.748C1150.49 57.748 1151.16 57.8809 1151.75 58.1465C1152.35 58.4121 1152.86 58.7995 1153.29 59.3086C1153.72 59.8122 1154.05 60.4237 1154.27 61.1431C1154.51 61.8569 1154.62 62.6676 1154.62 63.5752ZM1153.04 64.3389V63.5586C1153.04 62.8392 1152.96 62.2028 1152.81 61.6494C1152.67 61.096 1152.46 60.6312 1152.17 60.2549C1151.89 59.8786 1151.55 59.5936 1151.14 59.3999C1150.73 59.2062 1150.27 59.1094 1149.76 59.1094C1149.26 59.1094 1148.81 59.2062 1148.41 59.3999C1148.01 59.5936 1147.66 59.8786 1147.38 60.2549C1147.09 60.6312 1146.88 61.096 1146.72 61.6494C1146.57 62.2028 1146.49 62.8392 1146.49 63.5586V64.3389C1146.49 65.0638 1146.57 65.7057 1146.72 66.2646C1146.88 66.818 1147.1 67.2856 1147.38 67.6675C1147.68 68.0438 1148.02 68.3288 1148.42 68.5225C1148.83 68.7161 1149.28 68.813 1149.77 68.813C1150.29 68.813 1150.76 68.7161 1151.16 68.5225C1151.57 68.3288 1151.91 68.0438 1152.18 67.6675C1152.46 67.2856 1152.68 66.818 1152.82 66.2646C1152.97 65.7057 1153.04 65.0638 1153.04 64.3389ZM1161.4 66.3477L1163.8 57.9141H1164.96L1164.29 61.1929L1161.71 70H1160.55L1161.4 66.3477ZM1158.92 57.9141L1160.83 66.1816L1161.4 70H1160.26L1157.32 57.9141H1158.92ZM1168.07 66.1733L1169.93 57.9141H1171.54L1168.61 70H1167.47L1168.07 66.1733ZM1165.14 57.9141L1167.47 66.3477L1168.32 70H1167.16L1164.67 61.1929L1163.99 57.9141H1165.14Z" fill="#424242"/>
<path d="M1439.5 0.5H0.5V129.5H1439.5V0.5Z" stroke="#ECEDF1"/>
</g>
<defs>
<clipPath id="clip0_292_505">
<rect width="1440" height="130" fill="white"/>
</clipPath>
</defs>
</svg>
