<svg width="16" height="16" viewBox="0 0 16 16" fill="none" xmlns="http://www.w3.org/2000/svg">
<g clip-path="url(#clip0_2_133)">
<path d="M7.87265 0C5.88265 0 5.6339 0 4.80474 0.0878924C4.05849 0.0878924 3.47807 0.263677 2.98057 0.439462C2.48307 0.615247 2.06849 0.878924 1.65391 1.31839C1.23932 1.75785 0.990573 2.19731 0.824739 2.72467C0.658906 3.25202 0.493072 3.77937 0.493072 4.6583C0.493072 5.53722 0.410156 5.8009 0.410156 7.91032C0.410156 10.0197 0.410155 10.2834 0.493072 11.1623C0.493072 11.9534 0.658906 12.5686 0.824739 13.096C0.990573 13.6233 1.23932 14.0628 1.65391 14.5022C2.06849 14.9417 2.48307 15.2054 2.98057 15.3812C3.47807 15.557 3.97557 15.7327 4.80474 15.7327C5.6339 15.7327 5.88265 15.8206 7.87265 15.8206C9.86265 15.8206 10.1114 15.8206 10.9406 15.7327C11.6868 15.7327 12.2672 15.557 12.7647 15.3812C13.2622 15.2054 13.6768 14.9417 14.0914 14.5022C14.506 14.0628 14.7547 13.6233 14.9206 13.096C15.0864 12.5686 15.2522 12.0413 15.2522 11.1623C15.2522 10.2834 15.3352 10.0197 15.3352 7.91032C15.3352 5.8009 15.3352 5.53722 15.2522 4.6583C15.2522 3.86727 15.0864 3.25202 14.9206 2.72467C14.7547 2.19731 14.506 1.75785 14.0914 1.31839C13.6768 0.878924 13.2622 0.615247 12.7647 0.439462C12.2672 0.263677 11.7697 0.0878924 10.9406 0.0878924C10.1114 0 9.86265 0 7.87265 0ZM7.20932 1.40628C7.37516 1.40628 7.6239 1.40628 7.87265 1.40628C9.86265 1.40628 10.1114 1.40628 10.8577 1.49417C11.6039 1.49417 11.9356 1.66996 12.2672 1.75785C12.5989 1.93363 12.8477 2.10942 13.0964 2.3731C13.3452 2.63677 13.511 2.90045 13.6768 3.25202C13.7597 3.5157 13.8427 3.86727 13.9256 4.6583C13.9256 5.53722 13.9256 5.71301 13.9256 7.82243C13.9256 9.93184 13.9256 10.1955 13.8427 10.9866C13.8427 11.7776 13.6768 12.1292 13.5939 12.4807C13.4281 12.8323 13.2622 13.096 13.0135 13.3596C12.7647 13.6233 12.516 13.7991 12.1843 13.9749C11.9356 14.0628 11.521 14.2386 10.7747 14.2386C10.0285 14.2386 9.77974 14.3265 7.78974 14.3265C5.79974 14.3265 5.55099 14.3265 4.80474 14.2386C4.05849 14.2386 3.72682 14.0628 3.39515 13.9749C3.06349 13.7991 2.81474 13.6233 2.56599 13.3596C2.31724 13.096 2.1514 12.8323 1.98557 12.4807C1.90265 12.217 1.73682 11.7776 1.73682 10.9866C1.73682 10.1955 1.65391 9.93184 1.65391 7.82243C1.65391 5.71301 1.6539 5.44933 1.73682 4.6583C1.73682 3.86727 1.90265 3.5157 1.98557 3.16413C2.1514 2.81256 2.31724 2.54888 2.56599 2.2852C2.81474 2.02153 3.06349 1.84574 3.39515 1.66996C3.6439 1.58206 4.05849 1.40628 4.80474 1.40628C5.55099 1.40628 5.88266 1.40628 7.20932 1.40628ZM11.8527 2.72467C11.3552 2.72467 10.9406 3.16413 10.9406 3.69148C10.9406 4.21884 11.3552 4.6583 11.8527 4.6583C12.3502 4.6583 12.7647 4.21884 12.7647 3.69148C12.7647 3.16413 12.3502 2.72467 11.8527 2.72467ZM7.87265 3.77937C5.79974 3.77937 4.05849 5.62511 4.05849 7.82243C4.05849 10.0197 5.79974 11.8655 7.87265 11.8655C9.94557 11.8655 11.6868 10.0197 11.6868 7.82243C11.6868 5.62511 10.0285 3.77937 7.87265 3.77937ZM7.87265 5.18565C9.19932 5.18565 10.3602 6.32825 10.3602 7.82243C10.3602 9.2287 9.28224 10.4592 7.87265 10.4592C6.54599 10.4592 5.38516 9.3166 5.38516 7.82243C5.38516 6.41615 6.54599 5.18565 7.87265 5.18565Z" fill="#311919"/>
</g>
<defs>
<clipPath id="clip0_2_133">
<rect width="16" height="16" fill="white"/>
</clipPath>
</defs>
</svg>
