<svg width="8" height="15" viewBox="0 0 8 15" fill="none" xmlns="http://www.w3.org/2000/svg">
<g clip-path="url(#clip0_2_642)">
<path d="M3.98 0.263677C3.31667 0.527354 2.90208 0.966816 2.57042 1.49417C2.23875 2.02152 2.15583 2.63677 2.15583 3.4278V5.36143H0V7.91031H2.15583V14.678H4.64333V7.9982H6.79917C6.79917 7.91031 6.88208 7.03139 7.13083 5.36143H4.64333V3.86726C4.64333 3.4278 4.64333 3.25202 4.72625 3.07623C4.72625 3.07623 4.72625 2.98834 4.80917 2.81256C4.89208 2.63677 5.05792 2.54888 5.30667 2.46099C5.4725 2.37309 5.72125 2.37309 6.05292 2.37309H7.21375V0.175785C6.63333 0.0878923 5.97 0 5.30667 0C4.80917 0 4.31167 0.0878924 3.98 0.263677Z" fill="#311919"/>
</g>
<defs>
<clipPath id="clip0_2_642">
<rect width="8" height="15" fill="white"/>
</clipPath>
</defs>
</svg>
