<svg width="16" height="14" viewBox="0 0 16 14" fill="none" xmlns="http://www.w3.org/2000/svg">
<g clip-path="url(#clip0_2_131)">
<path d="M8.104 3.5705C8.104 3.83418 8.10401 4.09785 8.18693 4.36153C7.93818 4.36153 7.52359 4.27364 6.86025 4.18575C6.27984 4.00996 5.78233 3.92207 5.36775 3.74628C4.87025 3.5705 4.37276 3.30682 3.87526 2.95525C3.46068 2.69157 3.04609 2.34 2.54859 1.81265C2.29984 1.54897 2.05109 1.2853 1.80234 1.02162C1.55359 1.54897 1.38776 2.07633 1.38776 2.60368V2.69157C1.38776 3.39471 1.63651 4.09785 2.13401 4.80099C2.38276 5.06467 2.54859 5.32835 2.71442 5.41624C2.29984 5.41624 1.80234 5.24045 1.30484 4.97678V5.06467C1.30484 5.94359 1.63651 6.73462 2.21693 7.34987C2.63151 7.70144 2.96317 7.96512 3.29483 8.05301C3.54358 8.1409 3.6265 8.1409 3.70942 8.1409C3.70942 8.1409 3.62651 8.2288 3.37776 8.2288C3.21192 8.2288 3.12901 8.2288 3.04609 8.2288H2.96317C2.96317 8.2288 2.96317 8.2288 2.88025 8.2288H2.79734C2.63151 8.2288 2.46567 8.22879 2.29984 8.1409C2.54859 8.93193 2.96317 9.45929 3.54359 9.89875C4.04109 10.2503 4.6215 10.4261 5.20192 10.4261C4.87025 10.6898 4.62151 10.8656 4.28984 11.0414C3.29484 11.5687 2.38275 11.8324 1.47067 11.8324H1.22192C0.973167 11.8324 0.807344 11.8324 0.558594 11.8324C1.13901 12.2718 1.80233 12.5355 2.46567 12.7992C3.37775 13.1508 4.37275 13.3266 5.36775 13.3266C6.94317 13.3266 8.43567 12.975 9.76234 12.184C10.1769 11.9203 10.6744 11.5687 11.1719 11.1292C11.6694 10.6898 12.0011 10.3382 12.1669 10.0745C12.5815 9.54718 12.9132 9.01983 13.2448 8.40458C13.4107 8.05301 13.6594 7.61355 13.8253 7.08619C14.1569 6.03149 14.3228 5.06467 14.3228 4.09785V3.65839V3.48261C14.4886 3.39471 14.8203 3.13104 15.2348 2.69157C15.5665 2.34 15.7323 2.07633 15.8982 1.81265C15.4836 1.98844 15.069 2.16422 14.6544 2.25211C14.3228 2.34 14.1569 2.34 14.1569 2.34C14.3228 2.25211 14.4886 2.07633 14.8203 1.81265C15.1519 1.37319 15.4007 0.933726 15.4836 0.582157C15.069 0.845834 14.6544 1.02162 14.2398 1.1974C13.8253 1.2853 13.5765 1.37319 13.4936 1.37319C13.1619 1.10951 12.9961 0.933726 12.8303 0.845834C12.3328 0.494264 11.8353 0.406372 11.2548 0.406372C10.4257 0.406372 9.67942 0.757942 9.099 1.37319C8.43567 1.90054 8.104 2.69157 8.104 3.5705Z" fill="#311919"/>
</g>
<defs>
<clipPath id="clip0_2_131">
<rect width="16" height="14" fill="white"/>
</clipPath>
</defs>
</svg>
