<svg width="36" height="40" viewBox="0 0 36 40" fill="none" xmlns="http://www.w3.org/2000/svg">
<path d="M18.6424 39.5126C29.5311 39.5126 35.9768 35.1065 35.9768 27.6919C35.9768 21.4591 31.2834 17.8055 20.6452 15.7638C15.013 14.6893 12.948 13.507 12.948 11.5727C12.948 9.74592 14.8252 8.61766 17.7666 8.61766C21.2709 8.61766 23.2733 10.1757 23.2733 13.0235H35.1633C35.1633 5.28636 28.2797 0.289551 17.5162 0.289551C7.19066 0.289551 0.807897 4.69535 0.807897 11.7877C0.807897 18.1278 5.62619 22.0501 15.5135 23.6621C20.833 24.5756 23.3985 25.9724 23.3985 28.1217C23.3985 30.0022 21.5213 31.077 18.455 31.077C14.8252 31.077 12.6976 29.4112 12.6976 26.5099H0.494873C0.494873 34.623 7.25326 39.5126 18.6424 39.5126Z" fill="#669BB5"/>
</svg>
