<svg width="12" height="13" viewBox="0 0 12 13" fill="none" xmlns="http://www.w3.org/2000/svg">
<path d="M7.60396 0.411621L4.89898 1.02407L5.21882 2.02839L5.68657 3.5112C5.81113 3.86574 5.56947 4.23728 5.15622 4.33448C4.73939 4.43141 4.31446 4.21389 4.21325 3.85572L3.74161 2.37291L3.42177 1.35885L0.716797 1.9713L4.17011 12.8832L11.0573 11.3235L7.60396 0.411621ZM5.66289 5.25163C6.09561 5.24494 6.44659 5.54267 6.44269 5.91087C6.44269 6.28241 6.08393 6.57373 5.65121 6.5637C5.21882 6.57707 4.86006 6.27906 4.86006 5.90753C4.86006 5.53599 5.21882 5.23826 5.65121 5.25163C5.65511 5.25163 5.659 5.25163 5.66289 5.25163Z" fill="white"/>
</svg>
