<svg width="54" height="33" viewBox="0 0 54 33" fill="none" xmlns="http://www.w3.org/2000/svg">
<path d="M50.8945 0.371582L48.6845 0.880426C48.6845 0.880426 48.6845 0.880426 48.6806 0.880426L48.6573 0.88711C48.6456 0.890453 48.6339 0.890453 48.6261 0.893795C48.6183 0.893795 48.6145 0.897137 48.6067 0.897137C48.5246 0.913848 48.439 0.91719 48.3533 0.910506C43.138 0.900479 37.9269 0.88711 32.7158 0.883768C32.2792 0.897137 31.8351 1.06787 31.5231 1.33552C31.5192 1.33886 31.5153 1.3422 31.5114 1.34554C31.067 1.72711 30.619 2.10895 30.1707 2.49051C29.7224 2.87208 29.2741 3.2503 28.8298 3.63186C28.3815 4.01342 27.9335 4.39499 27.4852 4.77655C27.0369 5.15811 26.5886 5.53968 26.1442 5.92124C25.6963 6.3028 25.248 6.68437 24.7997 7.06593C24.7958 7.06927 24.7919 7.07262 24.788 7.07596C25.0569 7.35391 25.2947 7.66529 25.4858 7.99644C26.4054 7.47117 27.4774 7.19321 28.557 7.22663C28.7753 7.03919 28.9897 6.85175 29.208 6.66432C29.473 6.43343 29.738 6.20254 30.0069 5.97137C30.0809 5.88782 30.1785 5.82098 30.2875 5.77391C30.3579 5.74383 30.4318 5.72378 30.5097 5.71375L33.3435 5.03752C33.7914 4.93057 34.2475 4.90717 34.6802 4.96065C35.9858 5.11801 37.1202 5.94129 37.4825 7.09935C37.9619 8.6426 36.9019 10.2457 35.109 10.661L31.753 11.4308H31.7452C29.9602 11.8591 30.9424 11.5915 29.2819 12.0265C28.288 12.3747 27.9024 13.7202 28.5998 14.4432C28.6114 14.4532 28.6192 14.4632 28.6309 14.4733C29.1142 15.0389 30.1003 15.213 30.8879 14.9487C30.9113 14.942 30.9385 14.9353 30.9658 14.9286L41.2401 12.5621C41.2556 12.5588 41.2673 12.5554 41.2829 12.5554L41.2868 12.5521C41.3101 12.5454 41.3374 12.5421 41.3607 12.5387C41.9456 12.4181 42.5613 11.9664 43.415 11.5648C43.4189 11.5648 43.4228 11.5648 43.4228 11.5614C45.8041 10.3062 48.1817 9.0509 50.5594 7.79564C50.5789 7.78561 50.5944 7.77558 50.6139 7.76556C50.6217 7.76221 50.6256 7.75887 50.6334 7.75887C50.6412 7.75553 50.6489 7.75219 50.6567 7.74885C50.719 7.72211 50.7855 7.70206 50.8517 7.69203L53.05 7.18653L50.8945 0.371582ZM33.8151 19.6948C33.7603 19.6915 33.7097 19.6915 33.6552 19.6948C33.4602 19.7018 33.2692 19.7419 33.0901 19.8121C29.7419 21.4322 26.4131 23.0958 23.0653 24.7359C23.0458 24.7426 23.0302 24.7493 23.0147 24.756C22.4726 25.7233 21.3152 26.3928 19.9821 26.3895L12.7092 26.3694L10.8888 26.3661C10.4564 26.3794 10.0977 26.0781 10.0977 25.7099C10.1015 25.3384 10.4603 25.0404 10.8927 25.0537L12.7131 25.0604L19.9898 25.0774C21.0191 25.0807 21.818 24.3978 21.8141 23.5174C21.8102 22.6404 20.9993 21.9444 19.9704 21.9444L5.41657 21.9074C5.32704 21.9074 5.23719 21.914 5.15156 21.9243C5.10485 21.9277 5.05814 21.9377 5.0111 21.9444C4.98385 21.9511 4.9605 21.9544 4.93714 21.9611C4.906 21.9678 4.87486 21.9745 4.84762 21.9812C4.80869 21.9912 4.77333 22.0046 4.73441 22.0179C4.64877 22.0447 4.56314 22.0781 4.47718 22.1185L1.87373 23.4005L0.868164 23.8957L3.48329 32.16L4.14599 31.8352L6.74976 30.5533C6.82761 30.5131 6.91325 30.4797 6.99531 30.4463C7.03035 30.426 7.06538 30.4126 7.10041 30.3992C7.23276 30.3524 7.36543 30.3123 7.50588 30.2789C7.51756 30.2789 7.53313 30.2756 7.54481 30.2722C7.56427 30.2655 7.58373 30.2622 7.6032 30.2589C7.73976 30.2285 7.876 30.2051 8.01645 30.1917C8.05538 30.1884 8.0943 30.1851 8.13712 30.1851C8.22697 30.1817 8.3165 30.175 8.40992 30.175L18.6453 30.1917C18.6492 30.1917 18.6531 30.1917 18.657 30.1917H18.6687C18.6842 30.1917 18.6959 30.1917 18.7115 30.1917C18.7154 30.1917 18.7193 30.1917 18.7232 30.1917C19.0508 30.2118 19.3897 30.155 19.6781 30.0277C24.6047 27.611 29.5236 25.1843 34.4502 22.761C34.4736 22.751 34.4969 22.7409 34.5242 22.7309C35.304 22.4363 35.8262 21.6297 35.6196 20.9367C35.6157 20.9234 35.6118 20.91 35.6079 20.9C35.4558 20.2304 34.6179 19.7252 33.8151 19.6915V19.6948Z" fill="white"/>
</svg>
