<svg width="15" height="14" viewBox="0 0 15 14" fill="none" xmlns="http://www.w3.org/2000/svg">
<path d="M3.97601 0.852051C4.27638 0.852051 4.58422 0.88213 4.88427 0.952594C6.11592 1.23361 7.07867 2.08057 7.41765 3.20855C7.56589 3.70403 8.28308 3.86779 8.70023 3.50628C9.65877 2.66963 10.9881 2.34822 12.2197 2.62618C12.4614 2.683 12.6914 2.75987 12.9058 2.85373C13.1202 2.94731 13.3187 3.05788 13.5059 3.1885C13.6891 3.3155 13.8607 3.45949 14.0087 3.6202C14.1608 3.77756 14.297 3.94828 14.4141 4.13238C14.4141 4.13907 14.418 4.14241 14.4219 4.14909L14.3518 4.1658C14.348 4.1658 14.348 4.1658 14.3441 4.1658C12.5276 4.60084 13.5993 4.30979 11.787 4.78494C11.7675 4.79162 11.7481 4.79831 11.7286 4.80527C9.69412 5.49793 9.03142 7.81433 10.4191 9.26706C10.8359 9.74554 11.3974 10.0669 12.0131 10.2377C11.9197 10.3079 11.8259 10.3783 11.7286 10.4452C11.5921 10.5421 11.4519 10.6326 11.3115 10.7228C11.1713 10.8134 11.027 10.8969 10.8826 10.9807C10.3059 11.3155 9.70969 11.6066 9.12095 11.8544C8.53642 12.102 7.95968 12.3095 7.42543 12.4803C6.89151 12.651 6.4004 12.785 5.98358 12.8852C5.57421 12.9891 5.23881 13.056 5.00526 13.1027C4.66985 12.8485 3.41873 11.8879 2.15204 10.2611C0.702078 8.40338 -0.478978 5.94662 0.328071 3.38597C0.807176 1.85637 2.3431 0.858735 3.97601 0.852051Z" fill="#E8505B"/>
</svg>
